<svg xmlns="http://www.w3.org/2000/svg" xmlns:xlink="http://www.w3.org/1999/xlink" width="100" zoomAndPan="magnify" viewBox="0 0 75 74.999997" height="100" preserveAspectRatio="xMidYMid meet" version="1.0"><defs><clipPath id="43d039e188"><path d="M 17.597656 10.472656 L 57.347656 10.472656 L 57.347656 64.472656 L 17.597656 64.472656 Z M 17.597656 10.472656 " clip-rule="nonzero"/></clipPath></defs><g clip-path="url(#43d039e188)"><path fill="#000000" d="M 20.183594 64.496094 C 20.136719 64.476562 20.078125 64.4375 20.054688 64.410156 C 20.015625 64.363281 20.015625 64.332031 20.03125 62.488281 L 20.046875 60.613281 L 19.878906 60.578125 C 19.4375 60.488281 19.082031 60.195312 18.953125 59.820312 C 18.890625 59.636719 18.890625 59.351562 18.949219 59.183594 C 19.03125 58.964844 19.257812 58.679688 19.492188 58.503906 C 19.605469 58.421875 19.859375 58.289062 19.984375 58.25 L 20.058594 58.226562 L 20.070312 55.550781 C 20.078125 54.082031 20.085938 52 20.085938 50.925781 L 20.09375 48.96875 L 20.03125 48.964844 C 19.886719 48.949219 19.636719 48.871094 19.480469 48.792969 C 19.257812 48.683594 19.078125 48.519531 18.988281 48.339844 C 18.929688 48.214844 18.921875 48.1875 18.921875 48.011719 C 18.921875 47.839844 18.929688 47.808594 18.984375 47.699219 C 19.121094 47.429688 19.464844 47.183594 19.851562 47.082031 L 20.023438 47.035156 L 20.03125 46.460938 C 20.042969 45.714844 20.105469 44.238281 20.152344 43.578125 L 20.164062 43.421875 L 20.101562 43.410156 C 20.066406 43.402344 20.019531 43.371094 19.996094 43.335938 C 19.972656 43.304688 19.945312 43.277344 19.933594 43.277344 C 19.878906 43.277344 19.621094 43.136719 19.535156 43.058594 C 19.273438 42.828125 19.164062 42.429688 19.261719 42.050781 C 19.355469 41.679688 19.640625 41.296875 20.027344 41.011719 L 20.082031 40.972656 L 20.15625 36.890625 L 20.230469 32.8125 L 20.1875 32.3125 C 20.164062 32.035156 20.140625 31.808594 20.136719 31.804688 C 20.136719 31.800781 20.050781 31.789062 19.945312 31.777344 C 19.710938 31.75 19.425781 31.65625 19.246094 31.546875 C 19.082031 31.453125 18.894531 31.273438 18.839844 31.160156 C 18.796875 31.074219 18.753906 30.902344 18.753906 30.816406 C 18.753906 30.785156 18.726562 30.742188 18.683594 30.699219 C 18.648438 30.664062 18.613281 30.625 18.609375 30.613281 C 18.605469 30.601562 18.53125 30.558594 18.445312 30.519531 C 18.273438 30.433594 18.078125 30.269531 18 30.136719 C 17.972656 30.089844 17.9375 30.003906 17.917969 29.941406 C 17.773438 29.421875 17.980469 28.964844 18.480469 28.710938 C 18.773438 28.558594 18.929688 28.523438 19.421875 28.492188 C 19.976562 28.457031 20.023438 28.410156 20.113281 27.777344 C 20.144531 27.558594 20.179688 26.660156 20.191406 25.722656 C 20.195312 25.179688 20.199219 25.128906 20.238281 25.054688 C 20.289062 24.953125 20.351562 24.894531 20.492188 24.816406 C 20.554688 24.78125 20.65625 24.710938 20.722656 24.660156 C 20.820312 24.585938 20.851562 24.542969 20.882812 24.457031 C 20.976562 24.214844 20.992188 24.058594 21.007812 23.394531 C 21.015625 23.046875 21.03125 22.730469 21.042969 22.699219 C 21.132812 22.433594 21.316406 22.265625 21.589844 22.207031 C 21.734375 22.175781 22.199219 22.179688 22.820312 22.214844 C 23.1875 22.234375 23.390625 22.238281 23.523438 22.226562 C 23.867188 22.1875 23.871094 22.179688 23.917969 21.460938 C 23.9375 21.199219 23.96875 20.769531 23.992188 20.503906 C 24.042969 19.890625 24.097656 18.949219 24.144531 17.957031 C 24.175781 17.289062 24.175781 17.121094 24.15625 16.667969 C 24.140625 16.382812 24.121094 16.082031 24.109375 16 C 24.101562 15.917969 24.085938 15.789062 24.078125 15.714844 L 24.066406 15.582031 L 24.175781 15.566406 C 24.234375 15.558594 24.332031 15.550781 24.394531 15.550781 C 24.523438 15.550781 28.964844 15.496094 29.378906 15.492188 L 29.660156 15.488281 L 29.800781 15.269531 C 29.878906 15.152344 29.972656 15.007812 30.007812 14.953125 L 30.070312 14.855469 L 30.003906 14.425781 C 29.964844 14.1875 29.925781 13.96875 29.910156 13.933594 C 29.835938 13.746094 30.027344 13.558594 30.195312 13.652344 C 30.234375 13.675781 30.367188 13.683594 30.863281 13.683594 C 31.519531 13.683594 31.5625 13.679688 31.910156 13.578125 C 32.117188 13.515625 32.136719 13.507812 32.316406 13.355469 C 32.417969 13.269531 32.683594 13.078125 32.90625 12.929688 C 33.492188 12.539062 33.90625 12.308594 34.507812 12.050781 L 34.820312 11.914062 L 34.960938 11.347656 C 35.097656 10.796875 35.105469 10.777344 35.171875 10.714844 L 35.246094 10.648438 L 35.546875 10.636719 C 35.710938 10.628906 36.222656 10.589844 36.683594 10.546875 L 37.523438 10.472656 L 38.367188 10.546875 C 38.832031 10.589844 39.34375 10.628906 39.507812 10.636719 C 39.804688 10.648438 39.804688 10.648438 39.875 10.710938 C 39.945312 10.769531 39.949219 10.789062 40.066406 11.277344 C 40.136719 11.554688 40.199219 11.8125 40.207031 11.851562 C 40.226562 11.917969 40.238281 11.925781 40.425781 12 C 40.675781 12.097656 41.15625 12.332031 41.46875 12.507812 C 41.910156 12.753906 42.527344 13.171875 42.789062 13.40625 C 42.863281 13.46875 42.933594 13.523438 42.945312 13.523438 C 42.957031 13.523438 43.035156 13.542969 43.113281 13.574219 C 43.410156 13.671875 43.507812 13.683594 44.183594 13.683594 C 44.703125 13.683594 44.820312 13.675781 44.851562 13.652344 C 44.871094 13.636719 44.917969 13.625 44.953125 13.625 C 45.097656 13.625 45.191406 13.789062 45.136719 13.9375 C 45.121094 13.980469 45.082031 14.160156 45.054688 14.339844 C 44.972656 14.867188 44.972656 14.871094 45.011719 14.914062 C 45.03125 14.933594 45.085938 15.015625 45.132812 15.09375 C 45.277344 15.34375 45.375 15.476562 45.417969 15.484375 C 45.484375 15.5 50.558594 15.558594 50.59375 15.542969 C 50.609375 15.539062 50.707031 15.542969 50.808594 15.558594 L 50.992188 15.585938 L 50.976562 15.675781 C 50.890625 16.273438 50.863281 17.238281 50.914062 18.214844 C 50.964844 19.214844 51.003906 19.847656 51.046875 20.390625 C 51.070312 20.664062 51.105469 21.136719 51.125 21.445312 C 51.167969 22.050781 51.179688 22.109375 51.289062 22.171875 C 51.394531 22.234375 51.652344 22.246094 52.253906 22.210938 C 52.984375 22.171875 53.433594 22.183594 53.589844 22.242188 C 53.824219 22.335938 53.988281 22.554688 54.027344 22.839844 C 54.039062 22.917969 54.046875 23.203125 54.046875 23.476562 C 54.046875 24 54.066406 24.160156 54.152344 24.414062 C 54.183594 24.519531 54.214844 24.558594 54.304688 24.640625 C 54.363281 24.695312 54.46875 24.769531 54.535156 24.804688 C 54.699219 24.898438 54.742188 24.9375 54.804688 25.054688 C 54.859375 25.148438 54.859375 25.167969 54.855469 25.398438 C 54.851562 25.902344 54.894531 27.4375 54.925781 27.691406 C 54.960938 28.011719 55.007812 28.21875 55.058594 28.304688 C 55.082031 28.34375 55.140625 28.390625 55.207031 28.421875 C 55.300781 28.46875 55.351562 28.476562 55.644531 28.492188 C 56.027344 28.515625 56.171875 28.542969 56.398438 28.628906 C 56.90625 28.828125 57.171875 29.171875 57.171875 29.640625 C 57.171875 30.042969 56.992188 30.320312 56.613281 30.511719 C 56.496094 30.566406 56.433594 30.613281 56.414062 30.648438 C 56.398438 30.679688 56.367188 30.710938 56.347656 30.714844 C 56.316406 30.726562 56.304688 30.761719 56.289062 30.882812 C 56.261719 31.058594 56.214844 31.167969 56.121094 31.285156 C 55.921875 31.535156 55.476562 31.742188 55.050781 31.785156 C 54.972656 31.792969 54.910156 31.808594 54.90625 31.820312 C 54.902344 31.835938 54.878906 32.066406 54.855469 32.339844 C 54.820312 32.792969 54.816406 32.90625 54.835938 33.800781 C 54.871094 35.632812 54.957031 40.429688 54.957031 40.695312 L 54.957031 40.960938 L 55.09375 41.070312 C 55.46875 41.371094 55.707031 41.714844 55.792969 42.082031 C 55.839844 42.285156 55.824219 42.542969 55.75 42.722656 C 55.671875 42.917969 55.492188 43.105469 55.292969 43.207031 C 55.210938 43.246094 55.132812 43.277344 55.121094 43.277344 C 55.109375 43.277344 55.082031 43.300781 55.066406 43.328125 C 55.046875 43.355469 55 43.386719 54.964844 43.398438 C 54.878906 43.425781 54.882812 43.398438 54.925781 44.117188 C 54.972656 44.941406 55.015625 46.058594 55.015625 46.566406 C 55.015625 47.027344 55.015625 47.046875 55.054688 47.046875 C 55.128906 47.046875 55.425781 47.148438 55.570312 47.222656 C 55.777344 47.332031 55.964844 47.519531 56.058594 47.707031 C 56.128906 47.847656 56.132812 47.875 56.132812 48.023438 C 56.132812 48.164062 56.121094 48.207031 56.066406 48.324219 C 55.976562 48.515625 55.816406 48.667969 55.574219 48.789062 C 55.394531 48.878906 55.125 48.960938 55.015625 48.960938 C 54.984375 48.960938 54.957031 48.96875 54.953125 48.980469 C 54.933594 49.03125 54.988281 58.207031 55.007812 58.222656 C 55.015625 58.234375 55.070312 58.257812 55.125 58.273438 C 55.558594 58.414062 56.015625 58.867188 56.113281 59.246094 C 56.171875 59.476562 56.136719 59.78125 56.027344 59.988281 C 55.996094 60.042969 55.910156 60.15625 55.828125 60.234375 C 55.660156 60.40625 55.433594 60.523438 55.175781 60.582031 L 55.003906 60.617188 L 55.015625 62.015625 C 55.03125 64.359375 55.03125 64.359375 54.984375 64.414062 C 54.964844 64.4375 54.90625 64.476562 54.859375 64.496094 C 54.777344 64.53125 54.726562 64.53125 52.988281 64.503906 C 50.335938 64.457031 47.835938 64.414062 45.820312 64.382812 C 44.832031 64.367188 43.757812 64.347656 43.425781 64.339844 C 42.757812 64.324219 42.726562 64.320312 42.664062 64.191406 C 42.632812 64.125 42.628906 64.023438 42.640625 62.667969 C 42.65625 60.996094 42.628906 61.191406 42.886719 61.039062 C 43 60.972656 43.082031 60.90625 43.1875 60.785156 C 43.269531 60.695312 43.339844 60.597656 43.351562 60.570312 C 43.363281 60.542969 43.355469 59.078125 43.332031 56.902344 C 43.28125 52.296875 43.214844 46.15625 43.195312 44.441406 L 43.183594 43.117188 L 43.042969 43.035156 C 42.851562 42.921875 42.703125 42.761719 42.609375 42.578125 C 42.535156 42.425781 42.535156 42.417969 42.535156 42.191406 C 42.535156 41.960938 42.535156 41.953125 42.609375 41.804688 C 42.746094 41.53125 42.957031 41.316406 43.257812 41.152344 L 43.394531 41.074219 L 43.382812 40.992188 C 43.367188 40.867188 43.199219 40.363281 43.085938 40.101562 C 42.390625 38.472656 40.859375 36.882812 39.304688 36.175781 C 38.628906 35.871094 38.015625 35.742188 37.359375 35.769531 C 36.722656 35.796875 36.203125 35.941406 35.542969 36.277344 C 34.855469 36.625 34.257812 37.0625 33.660156 37.65625 C 32.714844 38.597656 32.03125 39.695312 31.71875 40.777344 C 31.679688 40.914062 31.644531 41.035156 31.644531 41.050781 C 31.644531 41.0625 31.679688 41.089844 31.722656 41.109375 C 31.871094 41.183594 32.070312 41.332031 32.207031 41.476562 C 32.621094 41.910156 32.632812 42.457031 32.242188 42.847656 C 32.175781 42.914062 32.066406 43 32 43.039062 L 31.878906 43.109375 L 31.863281 43.753906 C 31.855469 44.105469 31.828125 46.214844 31.808594 48.4375 C 31.785156 50.65625 31.746094 54.097656 31.726562 56.082031 C 31.703125 58.0625 31.6875 59.886719 31.6875 60.132812 L 31.6875 60.578125 L 31.828125 60.746094 C 31.964844 60.90625 32.125 61.035156 32.265625 61.097656 C 32.402344 61.15625 32.394531 61.070312 32.40625 62.695312 L 32.417969 64.160156 L 32.355469 64.234375 C 32.316406 64.273438 32.265625 64.3125 32.234375 64.320312 C 32.171875 64.332031 30.863281 64.355469 23.828125 64.472656 C 22.503906 64.492188 21.164062 64.515625 20.847656 64.519531 C 20.320312 64.53125 20.265625 64.527344 20.183594 64.496094 Z M 22.640625 64.101562 C 23.53125 64.085938 26.003906 64.042969 28.128906 64.007812 C 30.257812 63.972656 32.003906 63.9375 32.011719 63.929688 C 32.019531 63.925781 32.019531 63.449219 32.015625 62.878906 L 32.003906 61.839844 L 31.105469 61.824219 C 30.609375 61.816406 29.152344 61.796875 27.867188 61.78125 C 26.582031 61.765625 24.386719 61.738281 22.988281 61.722656 C 21.585938 61.703125 20.4375 61.691406 20.4375 61.695312 C 20.433594 61.699219 20.425781 62.25 20.417969 62.917969 L 20.40625 64.128906 L 20.710938 64.128906 C 20.882812 64.128906 21.75 64.117188 22.640625 64.101562 Z M 54.628906 62.921875 C 54.625 62.253906 54.613281 61.707031 54.605469 61.699219 C 54.601562 61.691406 53.835938 61.699219 52.90625 61.710938 C 51.976562 61.722656 49.382812 61.753906 47.140625 61.785156 C 44.894531 61.8125 43.054688 61.839844 43.050781 61.847656 C 43.042969 61.851562 43.035156 62.328125 43.03125 62.902344 L 43.027344 63.949219 L 43.394531 63.949219 C 43.597656 63.949219 45.980469 63.988281 48.691406 64.039062 C 51.398438 64.085938 53.847656 64.125 54.128906 64.125 L 54.640625 64.128906 Z M 32.003906 61.40625 C 32.007812 61.382812 31.972656 61.347656 31.894531 61.300781 C 31.828125 61.257812 31.6875 61.132812 31.574219 61.015625 L 31.375 60.804688 L 30.8125 60.804688 C 30.421875 60.804688 30.226562 60.8125 30.183594 60.828125 C 30.128906 60.851562 30.101562 60.847656 30.050781 60.828125 C 29.972656 60.792969 29.714844 60.789062 24.675781 60.726562 C 22.875 60.703125 21.1875 60.679688 20.925781 60.675781 L 20.449219 60.664062 L 20.441406 60.960938 C 20.4375 61.125 20.441406 61.265625 20.449219 61.277344 C 20.460938 61.292969 22.671875 61.324219 31.355469 61.433594 C 32.042969 61.445312 31.996094 61.445312 32.003906 61.40625 Z M 48.902344 61.367188 C 51.816406 61.335938 54.292969 61.300781 54.40625 61.296875 L 54.613281 61.285156 L 54.609375 60.980469 L 54.601562 60.675781 L 54.21875 60.679688 C 54.011719 60.683594 51.875 60.707031 49.476562 60.738281 C 45.675781 60.78125 45.105469 60.792969 45.039062 60.820312 C 44.988281 60.839844 44.945312 60.847656 44.898438 60.835938 C 44.863281 60.828125 44.574219 60.816406 44.257812 60.8125 L 43.679688 60.804688 L 43.546875 60.941406 C 43.476562 61.015625 43.394531 61.105469 43.367188 61.136719 C 43.339844 61.171875 43.253906 61.234375 43.183594 61.277344 C 43.066406 61.351562 43.027344 61.398438 43.058594 61.433594 C 43.066406 61.441406 43.191406 61.441406 43.335938 61.4375 C 43.484375 61.433594 45.988281 61.402344 48.902344 61.367188 Z M 31.292969 60.027344 C 31.296875 59.808594 31.304688 59.40625 31.304688 59.128906 L 31.304688 58.628906 L 30.882812 58.625 C 30.648438 58.625 30.4375 58.621094 30.414062 58.621094 C 30.367188 58.621094 30.367188 58.625 30.355469 58.890625 C 30.347656 59.042969 30.335938 59.441406 30.328125 59.78125 L 30.316406 60.402344 L 30.613281 60.40625 C 30.777344 60.410156 30.992188 60.414062 31.09375 60.417969 L 31.277344 60.421875 Z M 44.539062 60.402344 L 44.726562 60.402344 L 44.710938 59.519531 C 44.703125 59.035156 44.691406 58.636719 44.683594 58.628906 C 44.675781 58.625 44.460938 58.625 44.207031 58.628906 L 43.746094 58.640625 L 43.75 59.515625 C 43.753906 60 43.765625 60.402344 43.769531 60.410156 C 43.777344 60.421875 43.902344 60.421875 44.066406 60.414062 C 44.222656 60.410156 44.433594 60.402344 44.539062 60.402344 Z M 29.921875 60.386719 C 29.925781 60.378906 29.9375 59.976562 29.945312 59.492188 L 29.960938 58.609375 L 29.835938 58.609375 C 29.753906 58.609375 29.710938 58.617188 29.703125 58.636719 C 29.691406 58.671875 29.65625 60.371094 29.667969 60.386719 C 29.671875 60.394531 29.726562 60.402344 29.792969 60.402344 C 29.859375 60.402344 29.917969 60.394531 29.921875 60.386719 Z M 45.378906 59.84375 C 45.371094 59.535156 45.359375 59.132812 45.355469 58.945312 L 45.339844 58.609375 L 45.082031 58.609375 L 45.09375 59.078125 C 45.101562 59.335938 45.109375 59.738281 45.117188 59.972656 L 45.128906 60.402344 L 45.390625 60.402344 Z M 29.28125 59.804688 C 29.285156 59.484375 29.292969 59.082031 29.296875 58.910156 L 29.300781 58.597656 L 28.207031 58.589844 L 28.195312 59.195312 C 28.1875 59.53125 28.183594 59.933594 28.183594 60.09375 L 28.183594 60.382812 L 29.265625 60.382812 Z M 46.871094 60.320312 C 46.863281 60.285156 46.859375 59.882812 46.859375 59.421875 L 46.859375 58.589844 L 45.761719 58.601562 L 45.765625 59.324219 C 45.765625 59.722656 45.773438 60.125 45.78125 60.214844 L 45.792969 60.382812 L 46.882812 60.382812 Z M 27.15625 59.46875 L 27.15625 58.574219 L 27.007812 58.5625 C 26.929688 58.554688 26.195312 58.542969 25.382812 58.53125 C 24.566406 58.519531 23.667969 58.503906 23.382812 58.496094 L 22.863281 58.484375 L 22.863281 59.390625 C 22.863281 59.894531 22.871094 60.304688 22.878906 60.304688 C 22.90625 60.308594 26.238281 60.355469 26.695312 60.359375 L 27.15625 60.363281 Z M 27.800781 59.464844 L 27.800781 58.566406 L 27.546875 58.578125 L 27.542969 59.472656 L 27.539062 60.363281 L 27.800781 60.363281 Z M 47.503906 59.464844 L 47.503906 58.570312 L 47.234375 58.570312 L 47.246094 59.1875 C 47.253906 59.53125 47.261719 59.933594 47.261719 60.085938 L 47.261719 60.363281 L 47.503906 60.363281 Z M 50.296875 60.335938 C 51.332031 60.320312 52.183594 60.304688 52.191406 60.296875 C 52.195312 60.289062 52.195312 59.878906 52.1875 59.382812 L 52.171875 58.484375 L 51.664062 58.496094 C 51.386719 58.503906 50.492188 58.519531 49.679688 58.53125 C 48.863281 58.542969 48.132812 58.554688 48.050781 58.5625 L 47.90625 58.574219 L 47.90625 60.363281 L 48.164062 60.363281 C 48.304688 60.359375 49.265625 60.347656 50.296875 60.335938 Z M 21.699219 60.101562 C 21.707031 59.996094 21.714844 59.585938 21.714844 59.195312 L 21.722656 58.480469 L 21.410156 58.464844 C 20.8125 58.441406 20.421875 58.445312 20.378906 58.480469 C 20.355469 58.496094 20.28125 58.527344 20.207031 58.550781 C 19.882812 58.65625 19.621094 58.839844 19.449219 59.082031 C 19.335938 59.238281 19.296875 59.347656 19.296875 59.496094 C 19.296875 59.828125 19.539062 60.089844 19.933594 60.191406 C 19.996094 60.207031 20.09375 60.222656 20.144531 60.222656 C 20.195312 60.222656 20.265625 60.234375 20.304688 60.246094 C 20.363281 60.265625 21.335938 60.300781 21.644531 60.292969 C 21.683594 60.292969 21.6875 60.273438 21.699219 60.101562 Z M 22.46875 59.695312 C 22.476562 59.359375 22.480469 58.953125 22.480469 58.789062 L 22.480469 58.492188 L 22.332031 58.476562 C 22.246094 58.46875 22.167969 58.46875 22.152344 58.472656 C 22.128906 58.484375 22.121094 58.605469 22.113281 59.0625 C 22.105469 59.382812 22.097656 59.792969 22.097656 59.972656 L 22.097656 60.300781 L 22.453125 60.300781 Z M 52.945312 59.445312 C 52.941406 58.980469 52.933594 58.570312 52.929688 58.535156 C 52.917969 58.460938 52.894531 58.457031 52.683594 58.480469 L 52.578125 58.496094 L 52.578125 60.304688 L 52.953125 60.292969 Z M 54.71875 60.25 C 54.761719 60.234375 54.839844 60.222656 54.890625 60.222656 C 55.234375 60.21875 55.578125 60.023438 55.699219 59.757812 C 55.773438 59.597656 55.773438 59.386719 55.695312 59.238281 C 55.535156 58.921875 55.257812 58.695312 54.867188 58.558594 C 54.777344 58.527344 54.691406 58.492188 54.671875 58.476562 C 54.636719 58.445312 54.382812 58.441406 53.730469 58.460938 L 53.320312 58.476562 L 53.335938 59.375 C 53.34375 59.867188 53.351562 60.277344 53.355469 60.28125 C 53.359375 60.289062 53.648438 60.289062 54.003906 60.285156 C 54.507812 60.28125 54.660156 60.273438 54.71875 60.25 Z M 31.3125 58.0625 C 31.320312 57.960938 31.324219 57.542969 31.324219 57.136719 C 31.324219 56.558594 31.320312 56.390625 31.300781 56.382812 C 31.285156 56.378906 31.078125 56.371094 30.839844 56.363281 L 30.402344 56.351562 L 30.390625 57.113281 C 30.382812 57.53125 30.375 57.953125 30.371094 58.046875 L 30.367188 58.21875 L 30.71875 58.226562 C 30.914062 58.234375 31.125 58.242188 31.1875 58.242188 L 31.296875 58.246094 Z M 44.679688 58.214844 C 44.6875 58.207031 44.648438 56.371094 44.636719 56.363281 C 44.632812 56.355469 44.425781 56.359375 44.175781 56.367188 L 43.726562 56.382812 L 43.734375 57.300781 C 43.738281 57.804688 43.742188 58.222656 43.746094 58.230469 C 43.753906 58.242188 44.664062 58.226562 44.679688 58.214844 Z M 29.984375 57.566406 C 29.992188 57.214844 30 56.796875 30 56.636719 L 30.003906 56.34375 L 29.765625 56.34375 L 29.75 56.746094 C 29.746094 56.96875 29.734375 57.386719 29.726562 57.675781 L 29.710938 58.203125 L 29.816406 58.210938 C 29.878906 58.214844 29.933594 58.214844 29.949219 58.210938 C 29.964844 58.207031 29.976562 58.015625 29.984375 57.566406 Z M 45.332031 58.003906 C 45.320312 57.390625 45.304688 56.71875 45.292969 56.539062 L 45.28125 56.332031 L 45.171875 56.332031 C 45.09375 56.332031 45.0625 56.339844 45.050781 56.363281 C 45.039062 56.402344 45.074219 58.171875 45.089844 58.199219 C 45.097656 58.210938 45.152344 58.214844 45.21875 58.207031 L 45.332031 58.195312 Z M 29.3125 58.203125 C 29.324219 58.179688 29.363281 56.339844 29.355469 56.332031 C 29.347656 56.324219 29.089844 56.3125 28.78125 56.304688 L 28.222656 56.289062 L 28.222656 56.679688 C 28.222656 56.894531 28.21875 57.320312 28.210938 57.625 L 28.195312 58.183594 L 28.464844 58.191406 C 28.929688 58.203125 29.3125 58.207031 29.3125 58.203125 Z M 46.445312 58.195312 L 46.839844 58.179688 L 46.835938 57.25 C 46.832031 56.734375 46.820312 56.308594 46.8125 56.300781 C 46.808594 56.292969 46.554688 56.296875 46.25 56.304688 L 45.699219 56.324219 L 45.703125 56.816406 C 45.707031 57.089844 45.714844 57.511719 45.722656 57.757812 L 45.734375 58.207031 L 45.890625 58.207031 C 45.976562 58.207031 46.226562 58.199219 46.445312 58.195312 Z M 27.808594 58.171875 C 27.8125 58.164062 27.820312 57.734375 27.824219 57.21875 L 27.828125 56.28125 L 27.566406 56.269531 L 27.550781 57.203125 C 27.542969 57.84375 27.546875 58.144531 27.5625 58.160156 C 27.585938 58.1875 27.789062 58.199219 27.808594 58.171875 Z M 47.472656 58.175781 C 47.5 58.164062 47.503906 58.058594 47.503906 57.21875 L 47.503906 56.273438 L 47.222656 56.273438 L 47.222656 56.671875 C 47.222656 56.890625 47.226562 57.320312 47.234375 57.628906 L 47.246094 58.1875 L 47.34375 58.1875 C 47.394531 58.1875 47.453125 58.179688 47.472656 58.175781 Z M 27.15625 57.210938 L 27.15625 56.253906 L 27.097656 56.253906 C 27.066406 56.253906 26.765625 56.242188 26.429688 56.230469 C 24.945312 56.183594 23.230469 56.132812 23.066406 56.132812 L 22.886719 56.132812 L 22.878906 57.09375 C 22.875 57.621094 22.878906 58.066406 22.890625 58.074219 C 22.902344 58.09375 25.523438 58.152344 26.789062 58.164062 L 27.15625 58.167969 Z M 50.546875 58.125 C 51.371094 58.113281 52.074219 58.097656 52.109375 58.09375 L 52.175781 58.085938 L 52.175781 57.117188 C 52.175781 56.226562 52.175781 56.148438 52.144531 56.136719 C 52.125 56.128906 51.746094 56.136719 51.300781 56.148438 C 49.015625 56.21875 47.933594 56.253906 47.910156 56.261719 C 47.882812 56.273438 47.875 57.078125 47.898438 57.773438 L 47.914062 58.171875 L 48.476562 58.160156 C 48.789062 58.152344 49.71875 58.136719 50.542969 58.125 Z M 22.484375 57.160156 C 22.488281 56.648438 22.488281 56.207031 22.488281 56.175781 C 22.492188 56.121094 22.488281 56.121094 22.339844 56.109375 C 22.257812 56.101562 22.179688 56.105469 22.171875 56.113281 C 22.15625 56.128906 22.117188 58.042969 22.132812 58.070312 C 22.136719 58.078125 22.21875 58.085938 22.3125 58.085938 L 22.480469 58.085938 Z M 52.914062 57.105469 C 52.90625 56.5625 52.890625 56.117188 52.886719 56.109375 C 52.878906 56.101562 52.800781 56.101562 52.714844 56.105469 L 52.558594 56.117188 L 52.558594 56.90625 C 52.558594 57.339844 52.566406 57.78125 52.574219 57.890625 L 52.585938 58.085938 L 52.925781 58.085938 Z M 21.742188 57.386719 C 21.75 57.011719 21.757812 56.570312 21.757812 56.402344 L 21.757812 56.09375 L 21.570312 56.082031 C 21.46875 56.078125 21.175781 56.066406 20.925781 56.058594 L 20.46875 56.046875 L 20.460938 56.886719 C 20.460938 57.347656 20.457031 57.792969 20.457031 57.878906 L 20.457031 58.035156 L 20.539062 58.046875 C 20.582031 58.054688 20.867188 58.0625 21.171875 58.0625 L 21.730469 58.066406 Z M 54.46875 58.054688 L 54.59375 58.039062 L 54.59375 56.046875 L 54.136719 56.058594 C 53.882812 56.066406 53.589844 56.078125 53.484375 56.082031 L 53.289062 56.09375 L 53.296875 56.832031 C 53.300781 57.238281 53.3125 57.683594 53.316406 57.820312 L 53.328125 58.066406 L 53.839844 58.066406 C 54.117188 58.066406 54.402344 58.058594 54.46875 58.054688 Z M 31.339844 55.617188 C 31.359375 54.179688 31.40625 49.578125 31.40625 49.25 L 31.40625 48.847656 L 30.558594 48.84375 L 30.558594 48.917969 C 30.558594 48.957031 30.539062 50.042969 30.511719 51.328125 C 30.484375 52.613281 30.449219 54.167969 30.4375 54.785156 C 30.425781 55.402344 30.417969 55.921875 30.425781 55.9375 C 30.433594 55.964844 30.488281 55.96875 30.734375 55.976562 C 30.898438 55.980469 31.101562 55.980469 31.183594 55.980469 L 31.335938 55.980469 Z M 44.625 55.953125 C 44.636719 55.941406 44.492188 48.859375 44.484375 48.84375 C 44.480469 48.84375 44.289062 48.84375 44.054688 48.84375 L 43.632812 48.847656 L 43.644531 49.5625 C 43.648438 49.957031 43.664062 51.179688 43.675781 52.285156 C 43.6875 53.386719 43.699219 54.671875 43.707031 55.140625 L 43.71875 55.992188 L 44.164062 55.976562 C 44.410156 55.972656 44.617188 55.960938 44.625 55.953125 Z M 30.023438 55.644531 C 30.039062 55.28125 30.15625 49.488281 30.160156 48.929688 C 30.164062 48.71875 30.171875 48.53125 30.183594 48.507812 C 30.214844 48.441406 30.324219 48.414062 30.464844 48.433594 C 30.878906 48.496094 31.359375 48.511719 31.410156 48.460938 C 31.417969 48.449219 31.425781 48.351562 31.421875 48.242188 L 31.417969 48.042969 L 31.15625 48.03125 C 31.011719 48.023438 30.8125 48.007812 30.710938 47.992188 C 30.570312 47.976562 30.511719 47.976562 30.445312 47.992188 C 30.335938 48.023438 30.25 47.992188 30.207031 47.910156 C 30.160156 47.820312 30.132812 47.363281 30.144531 46.945312 C 30.152344 46.738281 30.167969 46.019531 30.175781 45.34375 C 30.195312 44.046875 30.226562 43.265625 30.257812 43.171875 C 30.34375 42.929688 30.332031 42.9375 30.917969 42.9375 C 31.34375 42.9375 31.382812 42.933594 31.414062 42.898438 C 31.433594 42.878906 31.527344 42.828125 31.625 42.789062 C 31.789062 42.71875 31.929688 42.628906 31.910156 42.605469 C 31.902344 42.601562 31.582031 42.609375 31.199219 42.625 C 30.8125 42.640625 30.46875 42.648438 30.4375 42.640625 C 30.40625 42.632812 30.355469 42.601562 30.324219 42.566406 C 30.28125 42.515625 30.277344 42.496094 30.289062 42.433594 C 30.308594 42.355469 30.308594 37.464844 30.285156 34.644531 L 30.273438 32.847656 L 30.390625 32.71875 L 31.175781 32.71875 C 31.605469 32.71875 33.214844 32.710938 34.746094 32.695312 C 37.113281 32.671875 37.949219 32.671875 40.316406 32.695312 C 41.847656 32.710938 43.445312 32.722656 43.867188 32.71875 C 44.671875 32.71875 44.699219 32.71875 44.746094 32.804688 C 44.769531 32.855469 44.769531 33.421875 44.742188 38.875 C 44.730469 41.871094 44.730469 42.324219 44.757812 42.386719 C 44.78125 42.449219 44.78125 42.460938 44.75 42.53125 C 44.6875 42.652344 44.660156 42.65625 43.851562 42.625 C 43.460938 42.609375 43.136719 42.601562 43.132812 42.605469 C 43.128906 42.609375 43.140625 42.628906 43.164062 42.644531 C 43.207031 42.679688 43.519531 42.835938 43.550781 42.835938 C 43.558594 42.835938 43.589844 42.859375 43.613281 42.886719 L 43.664062 42.9375 L 44.140625 42.9375 C 44.824219 42.9375 44.792969 42.898438 44.835938 43.753906 C 44.847656 44.050781 44.871094 45.015625 44.886719 45.898438 C 44.910156 47.59375 44.90625 47.828125 44.828125 47.929688 C 44.777344 48 44.695312 48.023438 44.605469 47.996094 C 44.546875 47.976562 44.476562 47.976562 44.269531 48 C 44.125 48.019531 43.925781 48.03125 43.820312 48.03125 L 43.636719 48.03125 L 43.636719 48.472656 L 43.699219 48.484375 C 43.804688 48.503906 43.996094 48.5 44.3125 48.464844 C 44.746094 48.414062 44.777344 48.417969 44.847656 48.496094 C 44.902344 48.558594 44.90625 48.566406 44.894531 48.695312 C 44.882812 48.804688 44.964844 53.101562 45.019531 55.355469 L 45.035156 55.941406 L 45.144531 55.945312 C 45.203125 55.949219 45.257812 55.945312 45.269531 55.9375 C 45.277344 55.929688 45.277344 55.617188 45.265625 55.246094 C 45.257812 54.875 45.234375 54 45.214844 53.300781 C 45.199219 52.601562 45.167969 51.316406 45.144531 50.441406 C 45.09375 48.40625 45.09375 48.605469 45.164062 48.535156 C 45.226562 48.472656 45.316406 48.457031 45.382812 48.496094 C 45.402344 48.503906 45.777344 48.515625 46.214844 48.519531 C 46.980469 48.527344 47.015625 48.527344 47.058594 48.566406 C 47.085938 48.589844 47.113281 48.628906 47.121094 48.652344 C 47.132812 48.675781 47.152344 50.03125 47.167969 51.664062 C 47.203125 55.039062 47.214844 55.84375 47.226562 55.863281 C 47.234375 55.875 47.296875 55.878906 47.367188 55.875 L 47.5 55.867188 L 47.488281 52.125 L 47.476562 48.386719 L 47.582031 48.265625 L 49.882812 48.25 C 51.152344 48.242188 52.226562 48.238281 52.273438 48.246094 C 52.328125 48.253906 52.382812 48.277344 52.410156 48.304688 C 52.519531 48.414062 52.515625 48.367188 52.527344 51.035156 C 52.535156 52.390625 52.546875 54 52.550781 54.605469 L 52.566406 55.710938 L 52.886719 55.710938 L 52.875 54.566406 C 52.867188 53.9375 52.847656 52.570312 52.832031 51.527344 C 52.816406 50.488281 52.800781 49.433594 52.800781 49.1875 L 52.800781 48.742188 L 52.851562 48.695312 C 52.917969 48.628906 53.027344 48.617188 54.015625 48.605469 C 54.839844 48.59375 54.980469 48.582031 55.210938 48.515625 C 55.527344 48.421875 55.742188 48.222656 55.742188 48.027344 C 55.742188 47.945312 55.726562 47.886719 55.703125 47.902344 C 55.695312 47.90625 55.136719 47.929688 54.460938 47.953125 C 53.785156 47.972656 53.164062 47.996094 53.078125 48.003906 C 52.984375 48.011719 52.910156 48.007812 52.882812 47.992188 C 52.785156 47.941406 52.789062 48.015625 52.777344 45.570312 C 52.765625 43.535156 52.761719 43.273438 52.734375 43.234375 C 52.691406 43.175781 52.691406 43.058594 52.730469 43.003906 C 52.75 42.976562 52.792969 42.949219 52.828125 42.941406 C 52.867188 42.929688 53.230469 42.941406 53.789062 42.96875 C 54.585938 43.011719 54.6875 43.011719 54.730469 42.984375 C 54.753906 42.96875 54.835938 42.941406 54.910156 42.925781 C 55.0625 42.890625 55.164062 42.84375 55.257812 42.761719 C 55.316406 42.710938 55.402344 42.582031 55.402344 42.535156 C 55.402344 42.507812 53.046875 42.503906 52.972656 42.53125 C 52.933594 42.546875 52.902344 42.546875 52.851562 42.523438 C 52.71875 42.46875 52.722656 42.5 52.722656 41.070312 L 52.722656 39.789062 L 52.132812 39.800781 C 51.808594 39.808594 50.546875 39.824219 49.332031 39.835938 C 48.117188 39.851562 47.113281 39.867188 47.101562 39.871094 C 47.09375 39.878906 47.09375 40.398438 47.105469 41.101562 C 47.128906 42.472656 47.136719 42.40625 46.984375 42.453125 C 46.941406 42.46875 46.882812 42.5 46.851562 42.527344 C 46.808594 42.5625 46.769531 42.574219 46.679688 42.578125 C 45.671875 42.601562 45.238281 42.613281 45.160156 42.625 C 45.074219 42.636719 45.0625 42.632812 45.003906 42.578125 L 44.945312 42.515625 L 44.945312 37.664062 C 44.945312 34.488281 44.953125 32.789062 44.964844 32.742188 C 45.003906 32.613281 45.027344 32.605469 45.4375 32.617188 C 45.828125 32.625 54.453125 32.546875 54.46875 32.53125 C 54.472656 32.527344 54.480469 32.476562 54.488281 32.414062 L 54.5 32.300781 L 20.566406 32.300781 L 20.566406 32.535156 L 21.527344 32.546875 C 23.792969 32.578125 29.445312 32.625 29.703125 32.613281 L 29.980469 32.601562 L 30.035156 32.65625 L 30.089844 32.714844 L 30.101562 37.578125 C 30.105469 40.410156 30.101562 42.46875 30.09375 42.507812 C 30.066406 42.601562 29.996094 42.640625 29.890625 42.625 C 29.84375 42.617188 29.464844 42.605469 29.046875 42.59375 C 28.421875 42.582031 28.277344 42.570312 28.226562 42.546875 C 28.195312 42.527344 28.164062 42.507812 28.160156 42.496094 C 28.15625 42.488281 28.117188 42.46875 28.070312 42.453125 C 28.015625 42.429688 27.980469 42.402344 27.957031 42.351562 C 27.925781 42.285156 27.921875 42.203125 27.945312 41.085938 C 27.957031 40.378906 27.960938 39.886719 27.949219 39.875 C 27.929688 39.859375 22.359375 39.789062 22.339844 39.804688 C 22.335938 39.8125 22.328125 40.394531 22.324219 41.097656 C 22.320312 41.953125 22.3125 42.398438 22.296875 42.4375 C 22.265625 42.511719 22.15625 42.5625 22.074219 42.535156 C 22.011719 42.511719 19.640625 42.5 19.640625 42.523438 C 19.640625 42.566406 19.734375 42.703125 19.8125 42.773438 C 19.902344 42.847656 20.105469 42.9375 20.199219 42.9375 C 20.214844 42.9375 20.261719 42.953125 20.304688 42.976562 C 20.382812 43.015625 20.386719 43.015625 21.144531 42.976562 C 21.5625 42.953125 21.980469 42.933594 22.074219 42.933594 C 22.242188 42.929688 22.246094 42.929688 22.304688 42.992188 C 22.371094 43.070312 22.375 43.140625 22.324219 43.230469 C 22.285156 43.289062 22.285156 43.390625 22.277344 45.589844 L 22.269531 47.890625 L 22.207031 47.953125 C 22.148438 48.015625 22.148438 48.015625 21.976562 48.003906 C 21.882812 47.996094 21.257812 47.972656 20.589844 47.953125 C 19.921875 47.929688 19.367188 47.910156 19.355469 47.90625 C 19.339844 47.902344 19.324219 47.929688 19.3125 47.96875 C 19.269531 48.113281 19.414062 48.320312 19.636719 48.433594 C 19.914062 48.574219 20.058594 48.589844 21.082031 48.605469 C 22.019531 48.621094 22.140625 48.628906 22.207031 48.695312 C 22.25 48.738281 22.25 48.742188 22.246094 49.417969 C 22.238281 50.277344 22.183594 54.171875 22.167969 55.050781 L 22.15625 55.707031 L 22.496094 55.707031 L 22.511719 53.113281 C 22.535156 48.660156 22.535156 48.515625 22.578125 48.414062 C 22.601562 48.363281 22.636719 48.308594 22.664062 48.285156 C 22.714844 48.238281 22.65625 48.238281 25.832031 48.25 L 27.4375 48.253906 L 27.570312 48.371094 L 27.558594 52.121094 L 27.550781 55.867188 L 27.679688 55.875 C 27.746094 55.878906 27.8125 55.875 27.820312 55.871094 C 27.828125 55.863281 27.851562 54.375 27.867188 52.554688 C 27.910156 48.375 27.902344 48.679688 27.949219 48.613281 C 27.96875 48.585938 28.007812 48.550781 28.039062 48.542969 C 28.066406 48.53125 28.441406 48.519531 28.867188 48.519531 C 29.292969 48.515625 29.65625 48.503906 29.675781 48.496094 C 29.738281 48.460938 29.8125 48.476562 29.878906 48.535156 L 29.945312 48.59375 L 29.941406 48.914062 C 29.9375 49.089844 29.921875 49.777344 29.90625 50.441406 C 29.890625 51.105469 29.859375 52.382812 29.835938 53.28125 C 29.8125 54.179688 29.789062 55.132812 29.78125 55.398438 C 29.773438 55.667969 29.773438 55.902344 29.78125 55.917969 C 29.789062 55.941406 29.820312 55.949219 29.902344 55.949219 L 30.011719 55.949219 Z M 24.898438 48.089844 C 23.625 48.066406 22.722656 48.042969 22.675781 48.03125 C 22.578125 48.003906 22.515625 47.910156 22.53125 47.820312 C 22.539062 47.785156 22.535156 47.734375 22.523438 47.707031 C 22.507812 47.675781 22.507812 46.945312 22.527344 45.289062 C 22.558594 42.679688 22.546875 42.894531 22.683594 42.757812 C 22.730469 42.710938 22.765625 42.695312 22.8125 42.695312 C 22.851562 42.695312 22.902344 42.6875 22.929688 42.675781 C 23 42.648438 27.414062 42.691406 27.484375 42.71875 C 27.515625 42.730469 27.550781 42.761719 27.566406 42.78125 C 27.582031 42.816406 27.585938 43.457031 27.578125 45.421875 L 27.566406 48.015625 L 27.503906 48.074219 C 27.4375 48.132812 27.429688 48.132812 27.242188 48.132812 C 27.132812 48.128906 26.078125 48.109375 24.898438 48.089844 Z M 27.175781 45.414062 L 27.175781 43.101562 L 27.089844 43.089844 C 27.042969 43.082031 26.09375 43.074219 24.976562 43.066406 L 22.949219 43.054688 L 22.9375 43.9375 C 22.929688 44.421875 22.917969 45.457031 22.910156 46.234375 L 22.898438 47.644531 L 23.109375 47.65625 C 23.304688 47.667969 26.066406 47.722656 26.828125 47.726562 L 27.175781 47.730469 Z M 26.429688 46.292969 C 26.414062 46.277344 23.964844 46.214844 23.796875 46.226562 C 23.710938 46.234375 23.601562 46.242188 23.554688 46.25 C 23.492188 46.261719 23.453125 46.257812 23.417969 46.230469 C 23.320312 46.167969 23.316406 46.144531 23.316406 45.285156 L 23.316406 44.484375 L 23.40625 44.402344 C 23.453125 44.359375 23.515625 44.320312 23.542969 44.3125 C 23.628906 44.292969 26.65625 44.40625 26.710938 44.433594 C 26.8125 44.484375 26.8125 44.511719 26.761719 45.378906 C 26.71875 46.195312 26.714844 46.207031 26.632812 46.273438 C 26.601562 46.296875 26.445312 46.3125 26.429688 46.292969 Z M 26.367188 45.4375 C 26.378906 45.199219 26.390625 44.953125 26.390625 44.894531 L 26.390625 44.789062 L 26.292969 44.789062 C 26.242188 44.789062 25.71875 44.769531 25.128906 44.75 C 24.542969 44.726562 23.984375 44.710938 23.886719 44.710938 L 23.710938 44.710938 L 23.710938 45.253906 C 23.710938 45.703125 23.714844 45.800781 23.738281 45.808594 C 23.769531 45.820312 25.457031 45.871094 26 45.875 L 26.34375 45.878906 Z M 28.710938 48.09375 C 27.921875 48.054688 27.902344 48.050781 27.859375 47.9375 C 27.84375 47.898438 27.847656 47.128906 27.875 45.429688 L 27.910156 42.976562 L 28.011719 42.875 L 30.015625 42.855469 L 30.066406 42.90625 C 30.125 42.960938 30.132812 43.070312 30.085938 43.15625 C 30.0625 43.199219 30.039062 43.652344 29.96875 45.519531 C 29.910156 47.101562 29.871094 47.839844 29.859375 47.855469 C 29.84375 47.871094 29.835938 47.90625 29.835938 47.941406 C 29.832031 48.007812 29.789062 48.078125 29.71875 48.113281 C 29.667969 48.136719 29.640625 48.136719 28.710938 48.09375 Z M 29.5 47.472656 C 29.507812 47.332031 29.53125 46.738281 29.554688 46.148438 C 29.578125 45.5625 29.609375 44.671875 29.632812 44.175781 C 29.652344 43.675781 29.660156 43.261719 29.65625 43.253906 C 29.644531 43.242188 28.320312 43.273438 28.308594 43.289062 C 28.292969 43.304688 28.234375 47.648438 28.25 47.664062 C 28.261719 47.675781 29.015625 47.71875 29.363281 47.726562 L 29.488281 47.730469 Z M 45.335938 48.113281 C 45.265625 48.085938 45.234375 48.027344 45.199219 47.871094 C 45.171875 47.753906 45.148438 47.273438 45.085938 45.65625 C 45.042969 44.519531 45.003906 43.503906 45 43.398438 C 45 43.253906 44.988281 43.191406 44.960938 43.148438 C 44.90625 43.058594 44.914062 42.984375 44.984375 42.914062 L 45.042969 42.855469 L 46.042969 42.863281 C 47.140625 42.875 47.105469 42.871094 47.128906 42.992188 C 47.136719 43.039062 47.183594 45.78125 47.207031 47.460938 C 47.210938 47.902344 47.207031 47.929688 47.171875 47.972656 C 47.148438 47.996094 47.113281 48.027344 47.09375 48.035156 C 47.074219 48.046875 46.699219 48.074219 46.265625 48.09375 C 45.375 48.136719 45.390625 48.136719 45.335938 48.113281 Z M 46.25 47.703125 C 46.554688 47.6875 46.804688 47.671875 46.808594 47.664062 C 46.816406 47.65625 46.757812 43.296875 46.75 43.285156 C 46.742188 43.277344 45.398438 43.242188 45.390625 43.25 C 45.382812 43.257812 45.550781 47.628906 45.5625 47.6875 C 45.570312 47.738281 45.519531 47.738281 46.25 47.703125 Z M 47.546875 48.074219 L 47.484375 48.011719 L 47.476562 45.476562 C 47.46875 44.085938 47.464844 42.917969 47.460938 42.878906 C 47.457031 42.828125 47.46875 42.800781 47.511719 42.757812 L 47.5625 42.703125 L 48.546875 42.691406 C 50.417969 42.667969 52.101562 42.667969 52.214844 42.6875 C 52.332031 42.710938 52.425781 42.785156 52.46875 42.886719 C 52.488281 42.933594 52.5 43.449219 52.519531 45.222656 C 52.535156 46.476562 52.539062 47.597656 52.53125 47.714844 C 52.515625 47.90625 52.511719 47.9375 52.464844 47.980469 C 52.433594 48.011719 52.382812 48.035156 52.332031 48.042969 C 52.285156 48.046875 51.382812 48.066406 50.324219 48.082031 C 49.265625 48.101562 48.222656 48.117188 48.003906 48.125 L 47.609375 48.136719 Z M 50.1875 47.691406 C 51.261719 47.671875 52.140625 47.652344 52.148438 47.648438 C 52.160156 47.636719 52.117188 43.394531 52.105469 43.203125 L 52.09375 43.054688 L 50.066406 43.066406 C 48.949219 43.074219 48 43.082031 47.953125 43.089844 L 47.867188 43.101562 L 47.867188 47.730469 L 48.050781 47.730469 C 48.15625 47.730469 49.117188 47.710938 50.1875 47.691406 Z M 48.414062 46.269531 C 48.386719 46.25 48.359375 46.214844 48.347656 46.191406 C 48.316406 46.105469 48.242188 44.570312 48.265625 44.515625 C 48.3125 44.410156 48.269531 44.414062 49.933594 44.355469 L 51.488281 44.300781 L 51.582031 44.355469 C 51.738281 44.445312 51.730469 44.402344 51.734375 45.296875 C 51.738281 46.03125 51.734375 46.097656 51.703125 46.15625 C 51.652344 46.238281 51.59375 46.269531 51.5 46.25 C 51.457031 46.242188 51.339844 46.230469 51.246094 46.226562 C 51.058594 46.214844 48.777344 46.273438 48.574219 46.292969 C 48.484375 46.300781 48.449219 46.296875 48.414062 46.269531 Z M 50.222656 45.847656 C 50.824219 45.832031 51.320312 45.816406 51.320312 45.8125 C 51.324219 45.808594 51.332031 45.558594 51.339844 45.257812 L 51.355469 44.710938 L 51.214844 44.707031 C 51.023438 44.707031 48.664062 44.792969 48.65625 44.800781 C 48.648438 44.804688 48.683594 45.480469 48.703125 45.730469 L 48.714844 45.878906 L 48.921875 45.878906 C 49.03125 45.878906 49.617188 45.863281 50.222656 45.847656 Z M 27.433594 42.480469 C 27.425781 42.476562 26.386719 42.460938 25.121094 42.449219 C 23.855469 42.4375 22.796875 42.421875 22.773438 42.410156 C 22.746094 42.402344 22.691406 42.34375 22.652344 42.28125 L 22.578125 42.171875 L 22.59375 41.300781 C 22.605469 40.820312 22.609375 40.367188 22.605469 40.296875 C 22.601562 40.167969 22.601562 40.164062 22.703125 40.042969 L 22.804688 39.917969 L 24.179688 39.925781 C 24.933594 39.933594 26.015625 39.945312 26.578125 39.953125 L 27.601562 39.964844 L 27.71875 40.097656 L 27.710938 42.394531 L 27.652344 42.445312 C 27.601562 42.488281 27.464844 42.511719 27.433594 42.480469 Z M 27.320312 41.214844 C 27.316406 40.75 27.308594 40.359375 27.304688 40.351562 C 27.296875 40.34375 26.808594 40.335938 26.210938 40.335938 C 25.617188 40.332031 24.652344 40.328125 24.066406 40.320312 L 23.003906 40.308594 L 23.003906 40.519531 C 23.003906 40.636719 22.996094 41.019531 22.988281 41.375 C 22.976562 41.730469 22.972656 42.023438 22.980469 42.03125 C 22.992188 42.042969 25.085938 42.0625 26.378906 42.058594 L 27.324219 42.058594 Z M 47.398438 42.441406 L 47.339844 42.386719 L 47.339844 41.238281 C 47.339844 40.492188 47.347656 40.078125 47.363281 40.054688 C 47.414062 39.957031 47.398438 39.960938 49.015625 39.945312 C 49.851562 39.9375 50.917969 39.929688 51.386719 39.921875 L 52.238281 39.914062 L 52.28125 39.964844 C 52.308594 39.992188 52.351562 40.042969 52.382812 40.082031 L 52.4375 40.148438 L 52.453125 40.984375 C 52.476562 42.257812 52.480469 42.160156 52.402344 42.285156 C 52.355469 42.355469 52.3125 42.398438 52.269531 42.410156 C 52.230469 42.421875 51.304688 42.441406 49.921875 42.453125 C 48.664062 42.464844 47.59375 42.480469 47.542969 42.484375 C 47.464844 42.496094 47.445312 42.488281 47.398438 42.441406 Z M 52.0625 42.035156 C 52.070312 42.03125 52.074219 41.691406 52.066406 41.285156 C 52.050781 40.402344 52.046875 40.304688 52.023438 40.308594 C 52.011719 40.3125 51.0625 40.320312 49.910156 40.328125 C 48.757812 40.332031 47.792969 40.34375 47.769531 40.347656 L 47.722656 40.359375 L 47.722656 42.074219 L 49.886719 42.058594 C 51.074219 42.050781 52.054688 42.039062 52.0625 42.035156 Z M 29.371094 55.925781 C 29.378906 55.902344 29.550781 48.910156 29.542969 48.902344 C 29.539062 48.898438 29.261719 48.902344 28.921875 48.910156 L 28.308594 48.925781 L 28.296875 49.632812 C 28.289062 50.023438 28.273438 51.359375 28.261719 52.605469 C 28.253906 53.851562 28.238281 55.101562 28.234375 55.382812 L 28.222656 55.890625 L 28.277344 55.894531 C 28.382812 55.898438 29.097656 55.921875 29.234375 55.925781 C 29.308594 55.929688 29.371094 55.929688 29.371094 55.925781 Z M 46.632812 55.898438 L 46.816406 55.886719 L 46.816406 55.511719 C 46.816406 55.304688 46.804688 53.964844 46.789062 52.535156 C 46.773438 51.105469 46.757812 49.710938 46.757812 49.429688 L 46.757812 48.925781 L 46.140625 48.910156 C 45.800781 48.902344 45.519531 48.902344 45.511719 48.90625 C 45.507812 48.914062 45.539062 50.476562 45.585938 52.378906 C 45.632812 54.28125 45.671875 55.859375 45.671875 55.886719 L 45.671875 55.929688 L 46.058594 55.921875 C 46.269531 55.914062 46.53125 55.902344 46.632812 55.898438 Z M 27.167969 52.4375 L 27.179688 49.039062 L 27.050781 49.039062 C 26.929688 49.039062 25.4375 49.003906 23.691406 48.960938 C 23.285156 48.949219 22.949219 48.949219 22.941406 48.957031 C 22.929688 48.96875 22.878906 55.710938 22.890625 55.722656 C 22.894531 55.726562 24.691406 55.785156 26.953125 55.855469 C 27.046875 55.859375 27.132812 55.855469 27.140625 55.847656 C 27.152344 55.839844 27.164062 54.304688 27.167969 52.4375 Z M 50.222656 55.789062 C 51.277344 55.757812 52.148438 55.726562 52.152344 55.71875 C 52.164062 55.707031 52.128906 48.964844 52.113281 48.953125 C 52.101562 48.9375 47.898438 49.042969 47.882812 49.058594 C 47.875 49.066406 47.875 50.597656 47.882812 52.460938 L 47.890625 55.851562 L 48.09375 55.851562 C 48.207031 55.851562 49.164062 55.824219 50.222656 55.789062 Z M 21.78125 54.824219 C 21.84375 50.640625 21.859375 49.035156 21.84375 49.019531 C 21.824219 49 20.542969 48.988281 20.507812 49.007812 C 20.496094 49.015625 20.488281 49.515625 20.488281 50.507812 C 20.488281 51.324219 20.480469 52.816406 20.472656 53.820312 C 20.464844 54.914062 20.46875 55.648438 20.480469 55.652344 C 20.546875 55.660156 21.289062 55.683594 21.503906 55.679688 L 21.765625 55.679688 Z M 54.519531 55.652344 L 54.578125 55.636719 L 54.574219 53.582031 C 54.570312 52.453125 54.5625 50.957031 54.558594 50.261719 L 54.542969 48.996094 L 53.878906 49 C 53.515625 49 53.210938 49.007812 53.203125 49.015625 C 53.1875 49.027344 53.246094 53.394531 53.277344 55.039062 L 53.289062 55.691406 L 53.875 55.679688 C 54.195312 55.667969 54.484375 55.65625 54.519531 55.652344 Z M 31.433594 46.828125 C 31.441406 46.355469 31.453125 45.363281 31.460938 44.625 L 31.472656 43.28125 L 31.191406 43.292969 C 31.039062 43.296875 30.839844 43.304688 30.746094 43.3125 L 30.582031 43.324219 L 30.582031 43.828125 C 30.582031 44.109375 30.570312 45.058594 30.558594 45.945312 C 30.539062 47.320312 30.539062 47.554688 30.5625 47.578125 C 30.589844 47.605469 31.09375 47.675781 31.359375 47.6875 L 31.421875 47.691406 Z M 44.183594 47.636719 C 44.335938 47.617188 44.46875 47.597656 44.484375 47.585938 C 44.515625 47.566406 44.519531 47.4375 44.488281 45.085938 C 44.476562 44.125 44.464844 43.335938 44.457031 43.328125 C 44.4375 43.3125 43.609375 43.28125 43.589844 43.296875 C 43.582031 43.304688 43.621094 47.660156 43.632812 47.6875 C 43.636719 47.695312 43.847656 47.675781 44.183594 47.636719 Z M 21.882812 45.476562 C 21.890625 44.308594 21.890625 43.347656 21.886719 43.34375 C 21.875 43.328125 20.542969 43.398438 20.53125 43.410156 C 20.523438 43.417969 20.511719 43.679688 20.503906 43.988281 C 20.496094 44.300781 20.472656 44.925781 20.457031 45.375 C 20.4375 45.824219 20.425781 46.4375 20.429688 46.738281 L 20.4375 47.285156 L 20.386719 47.339844 C 20.34375 47.378906 20.296875 47.394531 20.160156 47.417969 C 19.976562 47.445312 19.773438 47.507812 19.789062 47.523438 C 19.800781 47.535156 21.769531 47.609375 21.835938 47.601562 C 21.863281 47.601562 21.871094 47.34375 21.882812 45.476562 Z M 54.152344 47.570312 C 54.554688 47.558594 54.976562 47.542969 55.089844 47.535156 L 55.289062 47.523438 L 55.179688 47.484375 C 55.117188 47.464844 54.996094 47.433594 54.90625 47.417969 C 54.707031 47.382812 54.679688 47.375 54.652344 47.320312 C 54.632812 47.289062 54.625 47.0625 54.621094 46.550781 C 54.621094 46.152344 54.609375 45.625 54.597656 45.375 C 54.585938 45.125 54.566406 44.582031 54.550781 44.164062 C 54.539062 43.75 54.527344 43.40625 54.527344 43.40625 C 54.519531 43.398438 53.367188 43.339844 53.257812 43.339844 L 53.160156 43.339844 L 53.167969 45.449219 C 53.171875 46.609375 53.179688 47.570312 53.191406 47.582031 C 53.199219 47.597656 53.242188 47.605469 53.3125 47.597656 C 53.367188 47.59375 53.746094 47.582031 54.152344 47.570312 Z M 32.132812 42.171875 C 32.132812 41.929688 31.894531 41.640625 31.5625 41.472656 C 31.484375 41.433594 31.449219 41.425781 31.390625 41.4375 C 31.347656 41.445312 31.296875 41.449219 31.277344 41.449219 C 31.160156 41.429688 30.96875 41.117188 30.910156 40.839844 C 30.886719 40.726562 30.882812 40.617188 30.890625 40.386719 C 30.90625 39.910156 31.015625 39.546875 31.320312 38.9375 C 31.671875 38.253906 32.164062 37.605469 32.859375 36.921875 C 33.949219 35.851562 35.078125 35.15625 36.296875 34.804688 C 36.316406 34.800781 36.320312 34.636719 36.320312 34.074219 C 36.320312 33.675781 36.332031 33.328125 36.339844 33.300781 C 36.351562 33.277344 36.398438 33.222656 36.445312 33.183594 L 36.535156 33.113281 L 37.511719 33.113281 C 38.542969 33.109375 38.523438 33.105469 38.628906 33.199219 C 38.734375 33.292969 38.730469 33.265625 38.738281 34.058594 L 38.75 34.804688 L 38.921875 34.851562 C 39.015625 34.878906 39.21875 34.953125 39.375 35.011719 C 41.386719 35.808594 43.46875 37.878906 44.035156 39.652344 C 44.21875 40.230469 44.222656 40.738281 44.046875 41.117188 C 43.921875 41.386719 43.808594 41.488281 43.675781 41.441406 C 43.59375 41.414062 43.546875 41.429688 43.371094 41.542969 C 43.105469 41.71875 42.929688 41.949219 42.921875 42.144531 L 42.921875 42.242188 L 44.339844 42.25 L 44.339844 41.300781 C 44.339844 40.777344 44.351562 38.726562 44.359375 36.742188 C 44.371094 34.757812 44.375 33.132812 44.375 33.128906 C 44.371094 33.128906 42.90625 33.109375 41.125 33.09375 C 38.40625 33.066406 37.425781 33.0625 35.042969 33.082031 C 33.480469 33.09375 31.859375 33.109375 31.4375 33.117188 L 30.675781 33.132812 L 30.6875 36.699219 C 30.695312 38.660156 30.707031 40.714844 30.714844 41.257812 L 30.726562 42.25 L 32.132812 42.246094 Z M 29.714844 37.621094 L 29.714844 33.03125 L 29.183594 33.015625 C 28.269531 32.996094 20.648438 32.9375 20.636719 32.949219 C 20.628906 32.957031 20.589844 34.625 20.554688 36.65625 C 20.519531 38.6875 20.488281 40.5 20.480469 40.691406 C 20.476562 41.011719 20.472656 41.039062 20.421875 41.148438 C 20.378906 41.238281 20.34375 41.277344 20.25 41.339844 C 20.023438 41.496094 19.792969 41.765625 19.699219 41.980469 C 19.679688 42.03125 19.660156 42.082031 19.660156 42.09375 C 19.660156 42.101562 20.121094 42.109375 20.796875 42.109375 L 21.9375 42.109375 L 21.941406 40.820312 L 21.949219 39.527344 L 22.003906 39.476562 C 22.050781 39.441406 22.085938 39.429688 22.167969 39.429688 C 22.222656 39.429688 22.378906 39.421875 22.511719 39.417969 C 22.644531 39.410156 23.96875 39.421875 25.453125 39.441406 C 27.570312 39.46875 28.167969 39.480469 28.214844 39.5 C 28.261719 39.519531 28.289062 39.550781 28.316406 39.625 C 28.359375 39.742188 28.363281 39.789062 28.335938 41.207031 L 28.320312 42.191406 L 28.902344 42.195312 C 29.222656 42.199219 29.535156 42.203125 29.597656 42.207031 L 29.714844 42.210938 Z M 24.339844 37.878906 C 23.589844 37.714844 22.992188 37.191406 22.753906 36.480469 C 22.578125 35.945312 22.617188 35.320312 22.863281 34.835938 C 23.003906 34.558594 23.34375 34.171875 23.546875 34.050781 C 23.59375 34.023438 23.667969 33.980469 23.707031 33.953125 C 23.925781 33.808594 24.316406 33.691406 24.648438 33.675781 C 25.679688 33.621094 26.585938 34.292969 26.839844 35.300781 C 26.875 35.441406 26.882812 35.53125 26.882812 35.804688 C 26.882812 36.105469 26.878906 36.15625 26.828125 36.335938 C 26.617188 37.089844 26.050781 37.65625 25.3125 37.851562 C 25.03125 37.925781 24.609375 37.9375 24.339844 37.878906 Z M 25.160156 37.488281 C 25.363281 37.441406 25.726562 37.261719 25.871094 37.136719 C 26.152344 36.890625 26.363281 36.5625 26.453125 36.21875 C 26.515625 35.988281 26.511719 35.597656 26.453125 35.371094 C 26.363281 35.035156 26.203125 34.769531 25.9375 34.519531 C 25.796875 34.386719 25.722656 34.335938 25.558594 34.253906 C 25.265625 34.109375 25.089844 34.066406 24.777344 34.066406 C 24.277344 34.0625 23.863281 34.238281 23.519531 34.597656 C 23.304688 34.824219 23.164062 35.070312 23.085938 35.371094 C 23.023438 35.601562 23.023438 35.992188 23.082031 36.21875 C 23.242188 36.8125 23.675781 37.269531 24.253906 37.457031 C 24.527344 37.542969 24.859375 37.554688 25.160156 37.488281 Z M 46.722656 42.171875 C 46.730469 42.167969 46.726562 41.710938 46.714844 41.164062 C 46.6875 39.914062 46.695312 39.710938 46.746094 39.601562 C 46.769531 39.558594 46.8125 39.511719 46.839844 39.496094 C 46.894531 39.472656 52.105469 39.398438 52.550781 39.417969 C 52.683594 39.421875 52.835938 39.429688 52.894531 39.429688 C 52.976562 39.429688 53.003906 39.4375 53.046875 39.480469 L 53.097656 39.53125 L 53.109375 40.269531 C 53.117188 40.679688 53.125 41.257812 53.125 41.5625 L 53.125 42.109375 L 55.398438 42.109375 L 55.371094 42.027344 C 55.292969 41.8125 55.070312 41.535156 54.847656 41.375 C 54.6875 41.261719 54.667969 41.234375 54.617188 41.105469 C 54.574219 41 54.574219 40.921875 54.503906 36.976562 C 54.460938 34.765625 54.425781 32.949219 54.421875 32.945312 C 54.410156 32.933594 46.574219 33 45.867188 33.015625 L 45.351562 33.027344 L 45.34375 37.605469 C 45.335938 40.121094 45.335938 42.1875 45.339844 42.191406 C 45.347656 42.207031 46.703125 42.191406 46.722656 42.171875 Z M 49.90625 37.890625 C 49.488281 37.8125 49.132812 37.628906 48.804688 37.316406 C 47.921875 36.46875 47.941406 35.078125 48.847656 34.234375 C 49.390625 33.726562 50.207031 33.539062 50.914062 33.761719 C 51.058594 33.808594 51.15625 33.855469 51.410156 33.988281 C 51.597656 34.089844 51.917969 34.40625 52.0625 34.628906 C 52.53125 35.351562 52.523438 36.265625 52.046875 36.980469 C 51.730469 37.457031 51.214844 37.792969 50.648438 37.890625 C 50.445312 37.925781 50.105469 37.925781 49.90625 37.890625 Z M 50.574219 37.507812 C 51.046875 37.425781 51.464844 37.152344 51.726562 36.757812 C 51.941406 36.433594 52.027344 36.117188 52.011719 35.714844 C 51.992188 35.339844 51.894531 35.054688 51.671875 34.753906 C 51.441406 34.441406 51.148438 34.246094 50.730469 34.121094 C 50.582031 34.074219 50.515625 34.066406 50.304688 34.066406 C 50.164062 34.066406 49.996094 34.074219 49.929688 34.089844 C 49.488281 34.1875 49.039062 34.5 48.816406 34.863281 C 48.617188 35.191406 48.539062 35.5 48.558594 35.875 C 48.570312 36.167969 48.601562 36.296875 48.730469 36.558594 C 49.066406 37.253906 49.816406 37.636719 50.574219 37.507812 Z M 43.769531 40.40625 C 43.757812 40.085938 43.710938 39.878906 43.574219 39.53125 C 43.265625 38.757812 42.710938 37.976562 41.898438 37.183594 C 41.285156 36.582031 40.6875 36.128906 40.003906 35.746094 C 39.453125 35.4375 38.816406 35.191406 38.582031 35.199219 C 38.453125 35.199219 38.449219 35.199219 38.371094 35.117188 C 38.296875 35.035156 38.292969 35.03125 38.308594 34.929688 C 38.3125 34.875 38.324219 34.519531 38.328125 34.144531 L 38.335938 33.460938 L 38 33.480469 C 37.8125 33.488281 37.558594 33.492188 37.429688 33.488281 C 37.300781 33.484375 37.089844 33.480469 36.957031 33.476562 L 36.714844 33.476562 L 36.710938 34.121094 C 36.703125 34.6875 36.707031 34.777344 36.738281 34.839844 C 36.785156 34.949219 36.761719 35.039062 36.660156 35.128906 C 36.585938 35.199219 36.570312 35.203125 36.488281 35.195312 C 36.320312 35.175781 35.71875 35.394531 35.226562 35.648438 C 34.105469 36.238281 32.960938 37.226562 32.191406 38.277344 C 31.542969 39.164062 31.195312 40.070312 31.277344 40.667969 C 31.285156 40.71875 31.296875 40.761719 31.304688 40.761719 C 31.3125 40.761719 31.34375 40.671875 31.375 40.5625 C 31.828125 39.035156 33.136719 37.347656 34.644531 36.347656 C 35.445312 35.816406 36.25 35.492188 37.011719 35.402344 C 37.269531 35.371094 38.027344 35.386719 38.246094 35.429688 C 39.003906 35.574219 39.726562 35.886719 40.472656 36.390625 C 41.964844 37.402344 43.207031 39.019531 43.679688 40.566406 C 43.734375 40.746094 43.746094 40.773438 43.761719 40.738281 C 43.773438 40.710938 43.777344 40.5625 43.769531 40.410156 Z M 26.347656 31.902344 C 26.347656 31.894531 26.335938 31.839844 26.316406 31.785156 C 26.296875 31.722656 26.28125 31.546875 26.269531 31.324219 C 26.257812 31.027344 26.246094 30.9375 26.207031 30.84375 C 26.148438 30.6875 26.011719 30.546875 25.855469 30.484375 C 25.738281 30.4375 25.714844 30.4375 25.25 30.4375 C 24.796875 30.4375 24.761719 30.441406 24.652344 30.484375 C 24.589844 30.507812 24.535156 30.535156 24.535156 30.542969 C 24.535156 30.550781 24.550781 30.636719 24.566406 30.738281 C 24.632812 31.144531 24.589844 31.566406 24.457031 31.78125 C 24.421875 31.835938 24.394531 31.882812 24.394531 31.886719 C 24.394531 31.898438 24.871094 31.90625 25.761719 31.910156 C 26.085938 31.914062 26.347656 31.910156 26.347656 31.902344 Z M 29.167969 31.910156 C 29.167969 31.902344 29.152344 31.855469 29.128906 31.800781 C 29.105469 31.75 29.035156 31.558594 28.976562 31.375 C 28.855469 31.011719 28.777344 30.839844 28.675781 30.714844 C 28.597656 30.621094 28.464844 30.546875 28.367188 30.546875 C 28.308594 30.546875 28.296875 30.558594 28.261719 30.632812 C 28.242188 30.679688 28.210938 30.820312 28.195312 30.949219 C 28.128906 31.414062 28.074219 31.632812 27.972656 31.808594 C 27.945312 31.855469 27.929688 31.898438 27.9375 31.90625 C 27.949219 31.917969 29.167969 31.921875 29.167969 31.90625 Z M 30.019531 31.84375 C 30.117188 31.75 30.207031 31.539062 30.277344 31.25 C 30.394531 30.746094 30.421875 30.660156 30.492188 30.507812 C 30.527344 30.425781 30.558594 30.355469 30.554688 30.351562 C 30.550781 30.351562 30.179688 30.355469 29.726562 30.363281 L 28.902344 30.375 L 28.988281 30.476562 C 29.105469 30.613281 29.226562 30.878906 29.359375 31.277344 C 29.484375 31.65625 29.523438 31.742188 29.609375 31.820312 C 29.726562 31.933594 29.914062 31.945312 30.019531 31.84375 Z M 32.203125 31.882812 C 32.195312 31.863281 32.148438 31.730469 32.097656 31.589844 C 31.824219 30.796875 31.726562 30.632812 31.449219 30.5 C 31.339844 30.449219 31.289062 30.4375 31.183594 30.4375 C 31.070312 30.4375 31.039062 30.445312 30.980469 30.488281 C 30.859375 30.582031 30.8125 30.707031 30.652344 31.367188 C 30.625 31.480469 30.574219 31.648438 30.535156 31.742188 L 30.464844 31.917969 L 31.339844 31.917969 C 32.167969 31.917969 32.214844 31.914062 32.203125 31.882812 Z M 35.152344 31.78125 C 34.976562 31.617188 34.84375 31.421875 34.730469 31.160156 C 34.515625 30.660156 34.421875 30.535156 34.226562 30.476562 C 34.03125 30.417969 33.921875 30.445312 33.816406 30.570312 C 33.726562 30.671875 33.671875 30.804688 33.519531 31.246094 C 33.441406 31.476562 33.347656 31.722656 33.308594 31.789062 L 33.238281 31.917969 L 35.296875 31.917969 Z M 38.789062 31.804688 C 38.613281 31.628906 38.5 31.4375 38.296875 30.964844 C 38.085938 30.472656 38.023438 30.363281 37.929688 30.3125 C 37.84375 30.265625 37.375 30.246094 37.214844 30.285156 C 37.035156 30.324219 37.023438 30.347656 36.644531 31.21875 C 36.535156 31.464844 36.433594 31.625 36.277344 31.789062 L 36.152344 31.917969 L 38.902344 31.917969 Z M 41.796875 31.902344 C 41.792969 31.894531 41.757812 31.8125 41.714844 31.726562 C 41.671875 31.636719 41.582031 31.40625 41.519531 31.207031 C 41.296875 30.535156 41.179688 30.398438 40.886719 30.464844 C 40.652344 30.519531 40.546875 30.632812 40.382812 31.015625 C 40.332031 31.132812 40.269531 31.277344 40.238281 31.335938 C 40.164062 31.484375 39.984375 31.71875 39.859375 31.824219 L 39.757812 31.914062 L 40.78125 31.917969 C 41.34375 31.917969 41.800781 31.910156 41.796875 31.902344 Z M 44.574219 31.890625 C 44.488281 31.695312 44.425781 31.488281 44.351562 31.175781 C 44.300781 30.96875 44.246094 30.757812 44.222656 30.707031 C 44.175781 30.59375 44.089844 30.496094 44.011719 30.453125 C 43.875 30.382812 43.59375 30.464844 43.40625 30.628906 C 43.292969 30.726562 43.179688 30.949219 43.050781 31.324219 C 43 31.457031 42.933594 31.644531 42.898438 31.742188 L 42.835938 31.917969 L 43.710938 31.917969 C 44.402344 31.917969 44.582031 31.910156 44.574219 31.890625 Z M 45.394531 31.859375 C 45.492188 31.804688 45.558594 31.671875 45.6875 31.289062 C 45.855469 30.789062 45.953125 30.589844 46.109375 30.421875 L 46.160156 30.367188 L 45.6875 30.367188 C 45.425781 30.367188 45.046875 30.359375 44.84375 30.351562 L 44.476562 30.339844 L 44.539062 30.457031 C 44.609375 30.597656 44.675781 30.816406 44.761719 31.191406 C 44.859375 31.605469 44.964844 31.832031 45.09375 31.890625 C 45.171875 31.921875 45.308594 31.910156 45.394531 31.859375 Z M 47.121094 31.910156 C 47.121094 31.90625 47.089844 31.835938 47.050781 31.753906 C 46.960938 31.558594 46.925781 31.417969 46.867188 31.015625 C 46.8125 30.636719 46.78125 30.558594 46.683594 30.550781 C 46.546875 30.535156 46.367188 30.6875 46.253906 30.90625 C 46.210938 30.996094 45.988281 31.601562 45.898438 31.882812 C 45.886719 31.914062 45.925781 31.917969 46.503906 31.917969 C 46.84375 31.917969 47.121094 31.914062 47.121094 31.910156 Z M 50.074219 31.902344 L 50.660156 31.890625 L 50.59375 31.78125 C 50.460938 31.5625 50.421875 31.246094 50.472656 30.832031 C 50.492188 30.683594 50.503906 30.550781 50.496094 30.539062 C 50.492188 30.523438 50.433594 30.496094 50.371094 30.472656 C 50.269531 30.441406 50.191406 30.4375 49.789062 30.4375 C 49.394531 30.4375 49.3125 30.441406 49.222656 30.472656 C 49.097656 30.515625 48.953125 30.636719 48.882812 30.753906 C 48.8125 30.875 48.792969 30.988281 48.773438 31.378906 C 48.761719 31.597656 48.746094 31.757812 48.726562 31.808594 C 48.707031 31.855469 48.699219 31.898438 48.707031 31.90625 C 48.722656 31.921875 49.34375 31.917969 50.074219 31.902344 Z M 22.308594 31.820312 C 22.210938 31.277344 21.964844 30.839844 21.671875 30.675781 C 21.53125 30.597656 21.347656 30.59375 21.214844 30.664062 C 20.953125 30.800781 20.734375 31.203125 20.65625 31.691406 C 20.648438 31.738281 20.621094 31.804688 20.59375 31.835938 L 20.542969 31.894531 L 22.320312 31.894531 Z M 23.773438 31.839844 C 24.03125 31.738281 24.148438 31.609375 24.191406 31.363281 C 24.222656 31.195312 24.21875 31.089844 24.171875 30.769531 C 24.152344 30.613281 24.136719 30.476562 24.136719 30.460938 C 24.140625 30.441406 23.953125 30.4375 23.246094 30.441406 C 22.753906 30.445312 22.285156 30.453125 22.203125 30.460938 L 22.058594 30.472656 L 22.175781 30.597656 C 22.382812 30.816406 22.542969 31.132812 22.632812 31.492188 C 22.660156 31.597656 22.683594 31.683594 22.6875 31.6875 C 22.703125 31.699219 23.007812 31.847656 23.066406 31.867188 C 23.179688 31.914062 23.628906 31.894531 23.773438 31.839844 Z M 27.371094 31.875 C 27.457031 31.84375 27.574219 31.71875 27.640625 31.59375 C 27.710938 31.449219 27.75 31.304688 27.789062 31 C 27.828125 30.710938 27.871094 30.527344 27.910156 30.445312 L 27.941406 30.386719 L 27.582031 30.386719 C 27.386719 30.386719 27.042969 30.390625 26.820312 30.398438 L 26.414062 30.410156 L 26.480469 30.515625 C 26.609375 30.71875 26.671875 31 26.671875 31.414062 C 26.671875 31.507812 26.679688 31.617188 26.691406 31.65625 C 26.71875 31.75 26.804688 31.832031 26.914062 31.867188 C 27.023438 31.898438 27.292969 31.90625 27.371094 31.875 Z M 48.199219 31.835938 C 48.351562 31.757812 48.371094 31.703125 48.390625 31.273438 C 48.410156 30.839844 48.449219 30.683594 48.597656 30.480469 C 48.617188 30.449219 48.632812 30.417969 48.628906 30.414062 C 48.621094 30.410156 48.28125 30.398438 47.867188 30.390625 C 47.128906 30.378906 47.113281 30.378906 47.128906 30.417969 C 47.183594 30.550781 47.222656 30.722656 47.261719 30.988281 C 47.304688 31.3125 47.339844 31.453125 47.414062 31.597656 C 47.535156 31.835938 47.648438 31.902344 47.917969 31.890625 C 48.058594 31.886719 48.121094 31.875 48.199219 31.835938 Z M 52.167969 31.785156 L 52.363281 31.683594 L 52.410156 31.507812 C 52.511719 31.128906 52.675781 30.804688 52.882812 30.578125 L 52.984375 30.46875 L 52.835938 30.457031 C 52.757812 30.453125 52.289062 30.445312 51.800781 30.441406 L 50.90625 30.433594 L 50.90625 30.511719 C 50.90625 30.554688 50.894531 30.675781 50.875 30.78125 C 50.828125 31.050781 50.84375 31.386719 50.90625 31.527344 C 51.019531 31.78125 51.285156 31.898438 51.726562 31.890625 L 51.972656 31.886719 Z M 54.46875 31.847656 C 54.414062 31.796875 54.410156 31.789062 54.371094 31.585938 C 54.296875 31.171875 54.09375 30.8125 53.851562 30.671875 C 53.671875 30.566406 53.425781 30.609375 53.230469 30.78125 C 53.019531 30.972656 52.800781 31.425781 52.75 31.789062 L 52.738281 31.894531 L 54.519531 31.894531 Z M 32.777344 31.824219 C 32.902344 31.761719 33.019531 31.53125 33.167969 31.0625 C 33.261719 30.765625 33.351562 30.546875 33.449219 30.394531 L 33.5 30.3125 L 32.71875 30.320312 C 32.289062 30.324219 31.9375 30.332031 31.933594 30.335938 C 31.929688 30.339844 31.960938 30.386719 32.007812 30.4375 C 32.132812 30.582031 32.304688 30.960938 32.464844 31.453125 C 32.550781 31.714844 32.621094 31.835938 32.710938 31.855469 C 32.714844 31.855469 32.746094 31.84375 32.777344 31.824219 Z M 42.457031 31.761719 C 42.480469 31.726562 42.546875 31.558594 42.605469 31.390625 C 42.773438 30.90625 42.894531 30.632812 43.019531 30.472656 L 43.125 30.328125 L 42.347656 30.320312 C 41.921875 30.316406 41.566406 30.316406 41.5625 30.316406 C 41.558594 30.320312 41.582031 30.367188 41.617188 30.421875 C 41.707031 30.558594 41.769531 30.710938 41.886719 31.066406 C 42.007812 31.445312 42.09375 31.640625 42.183594 31.742188 C 42.296875 31.871094 42.378906 31.875 42.457031 31.761719 Z M 35.902344 31.59375 C 36.007812 31.523438 36.132812 31.371094 36.210938 31.210938 C 36.273438 31.085938 36.625 30.277344 36.617188 30.273438 C 36.601562 30.265625 34.730469 30.296875 34.722656 30.304688 C 34.71875 30.3125 34.746094 30.355469 34.785156 30.40625 C 34.867188 30.511719 34.925781 30.621094 35.054688 30.921875 C 35.171875 31.199219 35.265625 31.347656 35.40625 31.484375 C 35.597656 31.671875 35.738281 31.703125 35.902344 31.59375 Z M 39.507812 31.597656 C 39.613281 31.53125 39.757812 31.375 39.839844 31.25 C 39.871094 31.203125 39.945312 31.042969 40.007812 30.898438 C 40.136719 30.601562 40.203125 30.476562 40.292969 30.375 L 40.351562 30.308594 L 40.246094 30.296875 C 40.105469 30.28125 38.4375 30.273438 38.4375 30.285156 C 38.4375 30.3125 38.839844 31.21875 38.890625 31.304688 C 38.964844 31.429688 39.105469 31.582031 39.1875 31.621094 C 39.289062 31.671875 39.402344 31.664062 39.507812 31.597656 Z M 20.328125 31.367188 C 20.414062 31.027344 20.542969 30.761719 20.71875 30.566406 C 20.761719 30.523438 20.792969 30.484375 20.789062 30.480469 C 20.78125 30.476562 20.402344 30.480469 19.941406 30.484375 C 19.121094 30.496094 19.105469 30.496094 19.109375 30.535156 C 19.121094 30.691406 19.167969 30.929688 19.199219 30.992188 C 19.300781 31.191406 19.683594 31.386719 20.054688 31.429688 C 20.320312 31.460938 20.300781 31.464844 20.328125 31.367188 Z M 55.199219 31.390625 C 55.421875 31.335938 55.65625 31.210938 55.769531 31.09375 C 55.867188 30.988281 55.886719 30.929688 55.921875 30.699219 C 55.929688 30.621094 55.941406 30.542969 55.945312 30.527344 C 55.953125 30.5 55.847656 30.496094 55.117188 30.484375 C 54.660156 30.480469 54.277344 30.476562 54.277344 30.480469 C 54.273438 30.480469 54.320312 30.550781 54.382812 30.628906 C 54.546875 30.847656 54.613281 30.992188 54.746094 31.429688 C 54.757812 31.460938 54.992188 31.441406 55.199219 31.390625 Z M 18.863281 30.164062 C 18.886719 30.144531 18.917969 30.125 18.929688 30.117188 C 18.949219 30.105469 22.617188 30.046875 25.765625 30.011719 C 26.292969 30.003906 29.109375 29.96875 32.03125 29.925781 C 34.949219 29.886719 37.421875 29.855469 37.519531 29.855469 C 37.621094 29.855469 38.683594 29.871094 39.886719 29.886719 C 41.742188 29.917969 46.230469 29.976562 49.367188 30.011719 C 53.710938 30.0625 56.089844 30.105469 56.128906 30.125 C 56.15625 30.140625 56.199219 30.167969 56.226562 30.1875 C 56.277344 30.226562 56.28125 30.226562 56.394531 30.183594 C 56.457031 30.160156 56.550781 30.101562 56.605469 30.050781 C 56.734375 29.9375 56.78125 29.820312 56.777344 29.628906 C 56.777344 29.355469 56.644531 29.175781 56.339844 29.035156 C 55.992188 28.871094 56.34375 28.882812 51.914062 28.890625 C 49.75 28.894531 45.753906 28.910156 43.042969 28.921875 C 38.664062 28.945312 37.066406 28.941406 28.945312 28.90625 C 19.191406 28.863281 19.207031 28.863281 18.90625 28.957031 C 18.625 29.042969 18.417969 29.1875 18.328125 29.363281 C 18.277344 29.464844 18.257812 29.691406 18.289062 29.816406 C 18.328125 29.953125 18.425781 30.0625 18.59375 30.148438 C 18.746094 30.230469 18.789062 30.230469 18.867188 30.164062 Z M 48.941406 28.503906 C 52.097656 28.488281 54.683594 28.46875 54.6875 28.464844 C 54.691406 28.460938 54.675781 28.414062 54.65625 28.363281 L 54.621094 28.265625 L 53.554688 28.269531 C 52.96875 28.269531 49.226562 28.285156 45.234375 28.304688 C 38.507812 28.332031 37.375 28.332031 29.59375 28.300781 C 24.976562 28.285156 21.027344 28.265625 20.816406 28.265625 L 20.425781 28.257812 L 20.394531 28.355469 C 20.378906 28.410156 20.367188 28.460938 20.371094 28.464844 C 20.378906 28.472656 23.609375 28.492188 27.550781 28.511719 C 35.308594 28.550781 39.246094 28.550781 48.941406 28.503906 Z M 45.570312 27.90625 C 50.261719 27.886719 54.203125 27.867188 54.328125 27.867188 C 54.523438 27.867188 54.558594 27.863281 54.546875 27.835938 C 54.523438 27.773438 54.492188 27.09375 54.476562 26.28125 C 54.464844 25.8125 54.453125 25.425781 54.449219 25.417969 C 54.445312 25.414062 50.65625 25.421875 46.035156 25.4375 C 40.570312 25.457031 37.609375 25.460938 37.574219 25.449219 C 37.542969 25.433594 37.503906 25.433594 37.46875 25.449219 C 37.429688 25.460938 34.457031 25.457031 29.015625 25.4375 C 24.398438 25.421875 20.613281 25.417969 20.605469 25.425781 C 20.597656 25.433594 20.582031 25.894531 20.570312 26.445312 C 20.554688 27 20.539062 27.542969 20.527344 27.652344 C 20.515625 27.761719 20.507812 27.855469 20.511719 27.859375 C 20.515625 27.863281 24.074219 27.882812 28.414062 27.90625 C 32.757812 27.925781 36.476562 27.941406 36.675781 27.945312 C 36.875 27.945312 40.875 27.929688 45.570312 27.90625 Z M 39.988281 25.066406 L 42.394531 25.058594 L 42.40625 24.847656 L 32.652344 24.847656 L 32.664062 25.058594 L 35.066406 25.066406 C 36.386719 25.074219 37.472656 25.085938 37.484375 25.09375 C 37.492188 25.101562 37.519531 25.101562 37.539062 25.09375 C 37.5625 25.085938 38.664062 25.074219 39.988281 25.066406 Z M 32.253906 24.949219 L 32.253906 24.851562 L 29.589844 24.839844 C 28.125 24.832031 25.625 24.824219 24.03125 24.824219 L 21.132812 24.824219 L 21.035156 24.910156 C 20.976562 24.957031 20.933594 25.003906 20.933594 25.011719 C 20.929688 25.027344 22.300781 25.03125 29.136719 25.042969 L 32.253906 25.046875 Z M 50.3125 25.035156 L 54.136719 25.019531 L 54.027344 24.921875 L 53.917969 24.828125 L 51.015625 24.824219 C 49.421875 24.824219 46.917969 24.832031 45.453125 24.839844 L 42.789062 24.851562 L 42.789062 25.046875 L 44.636719 25.046875 C 45.652344 25.046875 48.207031 25.039062 50.3125 25.035156 Z M 42.375 24.4375 C 42.390625 24.425781 42.335938 21.847656 42.320312 21.832031 C 42.316406 21.828125 41.996094 21.820312 41.605469 21.8125 L 40.898438 21.796875 L 40.890625 22.128906 C 40.886719 22.363281 40.894531 22.472656 40.910156 22.507812 C 40.925781 22.535156 40.933594 22.574219 40.933594 22.59375 C 40.9375 22.652344 40.882812 22.742188 40.832031 22.761719 C 40.800781 22.777344 39.664062 22.78125 37.503906 22.78125 L 34.222656 22.78125 L 34.175781 22.722656 C 34.125 22.664062 34.105469 22.523438 34.144531 22.5 C 34.160156 22.492188 34.167969 22.347656 34.167969 22.140625 L 34.167969 21.796875 L 33.457031 21.8125 C 33.066406 21.820312 32.742188 21.832031 32.734375 21.839844 C 32.726562 21.847656 32.710938 22.351562 32.699219 22.960938 C 32.6875 23.570312 32.671875 24.152344 32.664062 24.253906 L 32.652344 24.441406 L 32.910156 24.449219 C 33.417969 24.460938 42.363281 24.453125 42.375 24.4375 Z M 32.273438 24.296875 C 32.273438 24.117188 32.308594 22.71875 32.324219 22.207031 L 32.335938 21.835938 L 31.867188 21.847656 C 31.328125 21.863281 31.285156 21.851562 31.234375 21.730469 C 31.21875 21.691406 31.210938 21.652344 31.214844 21.640625 C 31.222656 21.632812 31.21875 21.605469 31.207031 21.585938 C 31.195312 21.5625 31.175781 21.378906 31.164062 21.175781 C 31.152344 20.972656 31.136719 20.792969 31.132812 20.777344 C 31.128906 20.761719 31.070312 20.828125 31.003906 20.929688 C 30.722656 21.359375 30.296875 21.664062 29.800781 21.792969 C 29.335938 21.914062 28.839844 21.863281 28.394531 21.640625 C 27.59375 21.246094 27.136719 20.351562 27.289062 19.476562 C 27.417969 18.734375 27.933594 18.121094 28.632812 17.882812 C 29.300781 17.65625 30.046875 17.792969 30.605469 18.25 C 30.679688 18.3125 30.777344 18.40625 30.816406 18.453125 C 30.882812 18.53125 30.890625 18.535156 30.929688 18.507812 C 30.953125 18.492188 31.019531 18.464844 31.078125 18.445312 C 31.164062 18.417969 31.203125 18.417969 31.261719 18.433594 C 31.316406 18.449219 31.738281 18.449219 32.785156 18.429688 C 33.585938 18.414062 34.238281 18.402344 34.238281 18.398438 C 34.242188 18.398438 34.246094 18.246094 34.25 18.0625 C 34.257812 17.800781 34.253906 17.707031 34.234375 17.65625 C 34.183594 17.539062 34.257812 17.402344 34.398438 17.351562 C 34.441406 17.335938 34.480469 17.335938 34.546875 17.351562 C 34.621094 17.371094 34.953125 17.367188 36.089844 17.335938 L 37.542969 17.292969 L 38.882812 17.332031 C 39.617188 17.355469 40.292969 17.367188 40.382812 17.359375 C 40.679688 17.339844 40.667969 17.335938 40.757812 17.421875 C 40.835938 17.5 40.835938 17.507812 40.824219 17.59375 C 40.800781 17.757812 40.792969 18.363281 40.8125 18.386719 C 40.839844 18.414062 43.730469 18.464844 43.78125 18.4375 C 43.796875 18.425781 43.835938 18.417969 43.859375 18.417969 C 43.910156 18.417969 44.070312 18.472656 44.125 18.511719 C 44.15625 18.53125 44.179688 18.511719 44.316406 18.378906 C 44.703125 17.996094 45.148438 17.804688 45.710938 17.78125 C 46.003906 17.769531 46.234375 17.804688 46.507812 17.914062 C 47.332031 18.230469 47.882812 19.128906 47.789062 20.003906 C 47.734375 20.503906 47.535156 20.917969 47.195312 21.257812 C 46.566406 21.882812 45.640625 22.03125 44.855469 21.644531 C 44.507812 21.46875 44.191406 21.179688 44.015625 20.878906 C 43.941406 20.746094 43.917969 20.730469 43.917969 20.800781 C 43.914062 20.9375 43.855469 21.566406 43.839844 21.640625 C 43.8125 21.773438 43.800781 21.796875 43.730469 21.832031 C 43.675781 21.855469 43.589844 21.859375 43.199219 21.847656 L 42.730469 21.835938 L 42.730469 21.996094 C 42.726562 22.28125 42.769531 24.023438 42.78125 24.238281 L 42.792969 24.449219 L 48.253906 24.4375 C 51.253906 24.429688 53.714844 24.421875 53.722656 24.414062 C 53.730469 24.410156 53.71875 24.324219 53.699219 24.226562 C 53.667969 24.089844 53.660156 23.910156 53.648438 23.433594 C 53.640625 23.066406 53.628906 22.800781 53.613281 22.769531 C 53.53125 22.582031 53.351562 22.550781 52.660156 22.585938 C 51.621094 22.644531 51.371094 22.636719 51.160156 22.546875 C 50.972656 22.46875 50.835938 22.289062 50.789062 22.066406 C 50.777344 22.003906 50.753906 21.742188 50.738281 21.480469 C 50.71875 21.21875 50.6875 20.789062 50.667969 20.523438 C 50.527344 18.816406 50.464844 17.273438 50.507812 16.574219 C 50.519531 16.320312 50.535156 16.074219 50.535156 16.03125 L 50.535156 15.949219 L 49.457031 15.9375 C 48.863281 15.929688 47.046875 15.902344 45.417969 15.882812 C 43.789062 15.859375 41.320312 15.824219 39.929688 15.808594 L 37.398438 15.773438 L 31.980469 15.847656 C 29 15.890625 26.105469 15.929688 25.542969 15.9375 L 24.527344 15.949219 L 24.53125 16.101562 C 24.53125 16.183594 24.539062 16.546875 24.546875 16.90625 C 24.558594 17.410156 24.554688 17.714844 24.527344 18.226562 C 24.480469 19.210938 24.441406 19.828125 24.386719 20.515625 C 24.359375 20.851562 24.328125 21.292969 24.316406 21.492188 C 24.285156 21.980469 24.265625 22.113281 24.191406 22.261719 C 24.050781 22.550781 23.78125 22.648438 23.15625 22.625 C 22.992188 22.617188 22.632812 22.601562 22.359375 22.585938 C 21.667969 22.550781 21.539062 22.578125 21.445312 22.761719 C 21.410156 22.832031 21.402344 22.898438 21.390625 23.496094 C 21.382812 23.992188 21.371094 24.179688 21.347656 24.269531 C 21.328125 24.335938 21.316406 24.398438 21.3125 24.40625 C 21.3125 24.425781 22.691406 24.429688 28.167969 24.4375 L 32.273438 24.441406 Z M 40.488281 21.953125 C 40.480469 21.550781 40.480469 21.515625 40.515625 21.46875 C 40.539062 21.445312 40.585938 21.417969 40.621094 21.410156 C 40.660156 21.402344 41.292969 21.410156 42.027344 21.429688 L 43.363281 21.460938 L 43.488281 21.328125 L 43.570312 20.101562 C 43.613281 19.425781 43.644531 18.867188 43.636719 18.859375 C 43.632812 18.851562 42.949219 18.835938 42.125 18.820312 C 41.296875 18.808594 40.589844 18.789062 40.546875 18.777344 C 40.414062 18.746094 40.40625 18.714844 40.40625 18.230469 C 40.402344 17.992188 40.394531 17.789062 40.386719 17.78125 C 40.378906 17.773438 39.730469 17.75 38.949219 17.726562 C 37.527344 17.6875 37.527344 17.6875 36.097656 17.726562 C 35.3125 17.75 34.667969 17.769531 34.660156 17.777344 C 34.65625 17.78125 34.648438 17.988281 34.648438 18.234375 C 34.644531 18.679688 34.644531 18.679688 34.59375 18.730469 C 34.5625 18.761719 34.511719 18.785156 34.460938 18.789062 C 34.414062 18.796875 33.710938 18.808594 32.898438 18.824219 C 32.082031 18.835938 31.414062 18.847656 31.410156 18.851562 C 31.402344 18.855469 31.4375 19.417969 31.484375 20.101562 L 31.566406 21.34375 L 31.683594 21.460938 L 33.046875 21.429688 C 34.148438 21.402344 34.417969 21.398438 34.46875 21.421875 C 34.578125 21.464844 34.585938 21.507812 34.566406 21.925781 C 34.554688 22.128906 34.550781 22.316406 34.558594 22.339844 L 34.570312 22.386719 L 40.496094 22.386719 Z M 29.628906 21.488281 C 30.464844 21.320312 31.039062 20.582031 30.996094 19.738281 C 30.976562 19.296875 30.839844 18.972656 30.542969 18.65625 C 30.300781 18.398438 30.046875 18.25 29.71875 18.164062 C 29.195312 18.03125 28.601562 18.171875 28.167969 18.535156 C 27.960938 18.710938 27.753906 19.035156 27.65625 19.347656 C 27.617188 19.476562 27.609375 19.539062 27.609375 19.808594 C 27.609375 20.164062 27.632812 20.28125 27.757812 20.546875 C 27.960938 20.976562 28.324219 21.292969 28.765625 21.4375 C 29.039062 21.527344 29.359375 21.542969 29.628906 21.488281 Z M 46.089844 21.488281 C 46.445312 21.414062 46.75 21.25 46.992188 20.992188 C 47.640625 20.308594 47.617188 19.230469 46.933594 18.589844 C 46.769531 18.433594 46.636719 18.347656 46.402344 18.246094 C 46.042969 18.09375 45.59375 18.074219 45.226562 18.195312 C 44.742188 18.359375 44.359375 18.71875 44.171875 19.191406 C 43.964844 19.707031 44.035156 20.316406 44.355469 20.789062 C 44.445312 20.921875 44.667969 21.140625 44.804688 21.234375 C 44.988281 21.355469 45.234375 21.457031 45.457031 21.496094 C 45.621094 21.527344 45.921875 21.523438 46.089844 21.488281 Z M 34.105469 15.429688 L 37.480469 15.382812 L 41.007812 15.429688 C 42.945312 15.457031 44.625 15.476562 44.738281 15.472656 L 44.941406 15.46875 L 44.863281 15.347656 C 44.820312 15.28125 44.761719 15.191406 44.730469 15.148438 C 44.605469 14.972656 44.609375 15.015625 44.660156 14.578125 C 44.6875 14.359375 44.710938 14.148438 44.71875 14.109375 L 44.730469 14.042969 L 44.308594 14.058594 C 43.652344 14.082031 43.507812 14.078125 43.304688 14.03125 C 42.867188 13.929688 42.878906 13.933594 42.609375 13.71875 C 42.050781 13.269531 41.0625 12.691406 40.359375 12.398438 C 40.222656 12.339844 40.09375 12.292969 40.066406 12.292969 C 40.039062 12.292969 39.988281 12.277344 39.953125 12.253906 C 39.917969 12.230469 39.777344 12.183594 39.640625 12.144531 C 39.1875 12.015625 38.8125 11.949219 38.277344 11.910156 C 38.105469 11.898438 37.867188 11.878906 37.746094 11.871094 C 37.597656 11.855469 37.449219 11.855469 37.28125 11.871094 C 37.148438 11.882812 36.867188 11.90625 36.660156 11.921875 C 36.085938 11.96875 35.402344 12.113281 35.121094 12.246094 C 35.0625 12.273438 35.003906 12.292969 34.984375 12.292969 C 34.910156 12.292969 34.304688 12.558594 33.984375 12.734375 C 33.421875 13.039062 32.757812 13.460938 32.425781 13.730469 C 32.195312 13.921875 32.210938 13.914062 31.789062 14.019531 C 31.554688 14.078125 31.417969 14.082031 30.695312 14.054688 L 30.316406 14.042969 L 30.328125 14.089844 C 30.347656 14.171875 30.417969 14.78125 30.425781 14.898438 C 30.429688 14.988281 30.421875 15.019531 30.386719 15.058594 C 30.34375 15.101562 30.117188 15.449219 30.117188 15.46875 C 30.117188 15.480469 30.582031 15.476562 34.105469 15.429688 Z M 35.457031 11.722656 C 35.667969 11.664062 36.171875 11.570312 36.414062 11.546875 C 36.546875 11.535156 36.710938 11.515625 36.777344 11.507812 C 37.179688 11.441406 37.863281 11.441406 38.265625 11.507812 C 38.332031 11.515625 38.496094 11.535156 38.628906 11.550781 C 38.929688 11.578125 39.222656 11.628906 39.535156 11.707031 C 39.667969 11.742188 39.777344 11.765625 39.78125 11.765625 C 39.78125 11.761719 39.742188 11.589844 39.691406 11.378906 L 39.597656 10.996094 L 39.183594 10.980469 C 38.957031 10.972656 38.574219 10.953125 38.335938 10.933594 C 37.800781 10.890625 37.359375 10.878906 37.109375 10.90625 C 36.761719 10.9375 35.953125 10.984375 35.703125 10.984375 C 35.464844 10.984375 35.457031 10.984375 35.445312 11.03125 C 35.441406 11.054688 35.398438 11.222656 35.355469 11.402344 C 35.3125 11.585938 35.273438 11.742188 35.273438 11.753906 C 35.273438 11.765625 35.289062 11.769531 35.308594 11.761719 C 35.328125 11.757812 35.394531 11.738281 35.457031 11.722656 Z M 35.457031 11.722656 " fill-opacity="1" fill-rule="nonzero"/></g></svg>