<svg xmlns="http://www.w3.org/2000/svg" viewBox="0 0 600 500"><defs><style>.cls-1{fill:#40484f;}.cls-2{fill:none;stroke:#41484f;stroke-miterlimit:10;stroke-width:6px;}</style></defs><title>cities-icon</title><path class="cls-1" d="M228.57 163.57h142.86a3 3 0 0 0 0-5.95h-3v-20.83a14.88 14.88 0 1 0-29.76 0v20.83h-5.95v-20.83a14.88 14.88 0 1 0-29.76 0v20.83h-6v-20.83a14.88 14.88 0 1 0-29.76 0v20.83h-5.95v-20.83a14.88 14.88 0 1 0-29.76 0v20.83h-3a3 3 0 0 0 0 5.95zm116.07-26.78a8.93 8.93 0 1 1 17.86 0v20.83h-17.86zm-35.71 0a8.93 8.93 0 0 1 17.86 0v20.83h-17.86zm-35.72 0a8.93 8.93 0 0 1 17.86 0v20.83h-17.86zm-35.71 0a8.93 8.93 0 0 1 17.86 0v20.83h-17.86zm17.86 68.45a3 3 0 0 0-3 3v11.91a3 3 0 1 0 5.95 0v-11.94a3 3 0 0 0-2.95-2.97zm17.85 0a3 3 0 0 0-3 3v11.91a3 3 0 1 0 5.95 0v-11.94a3 3 0 0 0-2.95-2.97zm17.86 0a3 3 0 0 0-3 3v11.91a3 3 0 1 0 5.95 0v-11.94a3 3 0 0 0-2.95-2.97zm17.86 0a3 3 0 0 0-3 3v11.91a3 3 0 1 0 5.95 0v-11.94a3 3 0 0 0-2.95-2.97zm17.86 0a3 3 0 0 0-3 3v11.91a3 3 0 1 0 5.95 0v-11.94a3 3 0 0 0-2.95-2.97zm17.85 0a3 3 0 0 0-3 3v11.91a3 3 0 1 0 5.95 0v-11.94a3 3 0 0 0-2.95-2.97z"/><circle class="cls-1" cx="258.33" cy="255.83" r="5.95"/><circle class="cls-1" cx="341.67" cy="255.83" r="5.95"/><path class="cls-1" d="M532.14 217.14h-10.14l-11.9-23.81h-10.7v-11.9h-7.73l-11.91-11.91h-87.5v-65.47h11.91v-17.86h-31.55l-11.91-11.9h-121.42l-11.91 11.9h-31.55v17.86h11.91v65.47h-87.5l-11.91 11.91h-7.73v11.9h-10.72l-11.88 23.81h-10.14a3 3 0 0 0 0 6h8.93v202.34h446.42v-202.38h8.93a3 3 0 1 0 0-6zm-25.59-17.85l8.93 17.85h-16.08v-17.85zm-13.1 17.85h-8.93v-8.93l-5.95-11.9-5.95 11.9v8.93h-17.86v-8.93l-5.95-11.9-5.95 11.9v8.93h-23.81v-8.93l-5.95-11.9-6 11.9v8.93h-17.81v-8.93l-6-11.9-5.95 11.9v8.93h-8.93v-29.76h125zm-148.81 154.76h-89.28v-87.38c0-4 20.71-15.95 44.64-25.47 23.81 9.52 44.64 21.31 44.64 25.47zm-43.57-119h-2.14c-14.88 5.83-49.53 20.71-49.53 31.43v87.57h-11.9v-136.9h125v136.9h-11.9v-87.38c0-10.71-34.65-25.71-49.53-31.42zm-69.52-29.8v41.66h-6v-20.83a3 3 0 1 0-6 0v20.83h-29.67v-20.83a3 3 0 1 0-5.95 0v20.83h-29.76v-20.83a3 3 0 1 0-6 0v20.83h-29.72v-20.83a3 3 0 1 0-6 0v20.83h-6v-41.66zm-125 47.61h125v101.19h-125zm256-89.28v11.9h-125v-11.9h-7.74l-5.95-6h152.33l-5.95 6zm-125 35.71v-17.85h125v29.76h-125zm131 53.57h125v101.19h-125zm125-5.95h-6.05v-20.83a3 3 0 1 0-5.95 0v20.83h-29.76v-20.83a3 3 0 0 0-6 0v20.83h-29.72v-20.83a3 3 0 1 0-5.95 0v20.83h-29.76v-20.83a3 3 0 1 0-6 0v20.83h-5.95v-41.66h125zm-16.07-89.28l5.95 6h-104.86l5.95-6zm-235.81-95.24h116.66l6 6h-128.62zm-39.88 17.86v-6h196.42v6zm11.9 6h172.62v65.47h-172.62zm-91.07 71.43h92.86l6 6h-104.81zm-16.07 11.9h125v29.76h-8.93v-8.93l-6-11.9-6 11.9v8.93h-17.76v-8.93l-6-11.9-6 11.9v8.93h-23.72v-8.93l-5.95-11.9-5.95 11.9v8.93h-17.86v-8.93l-5.95-11.9-6 11.9v8.93h-8.93zm-13.1 11.91h7.15v17.85h-16.08zm-10.71 220.18v-196.42h17.86v196.42zm23.81 0v-41.66h125v41.66zm131 0v-41.66h125v41.66zm131 0v-41.66h125v41.66zm148.81 0h-17.96v-196.42h17.86z"/><path class="cls-2" d="M103.72 403.82l389.93-1.66"/></svg>